<?xml version="1.0" standalone="no"?>
<!DOCTYPE svg PUBLIC "-//W3C//DTD SVG 1.1//EN" "http://www.w3.org/Graphics/SVG/1.1/DTD/svg11.dtd" >
<svg xmlns="http://www.w3.org/2000/svg">
<metadata>
This is a custom SVG webfont generated by Font Squirrel.
Copyright   : Copyright c 2007 by Timo Gaessner 123Buero All rights reserved
Designer    : Timo Gaessner 123Buero
Foundry     : Timo Gaessner 123Buero
Foundry URL : httpwwwdiegestaltende
</metadata>
<defs>
<font id="NaivRegular" horiz-adv-x="1261" >
<font-face units-per-em="2048" ascent="1638" descent="-410" />
<missing-glyph horiz-adv-x="614" />
<glyph unicode=" "  horiz-adv-x="614" />
<glyph unicode="&#x09;" horiz-adv-x="614" />
<glyph unicode="&#xa0;" horiz-adv-x="614" />
<glyph unicode="!" horiz-adv-x="675" d="M143 193v90q0 33 9.5 62.5t25.5 55.5q-16 25 -25.5 54.5t-9.5 62.5v932q0 49 16.5 87t44 62.5t61.5 37t71 12.5t71.5 -12.5t62.5 -38t45 -62.5t17 -86v-932q0 -33 -9 -62.5t-25 -54.5q16 -27 25 -56.5t9 -61.5v-90q0 -49 -16 -87t-44 -63t-61.5 -37t-70.5 -12t-73 12 t-63.5 38t-44 63t-16.5 86z" />
<glyph unicode="&#x22;" horiz-adv-x="831" d="M63 1270q0 20 4.5 38.5t10.5 37.5l59 167q23 63 75 99.5t112 36.5q76 0 127 -52q55 51 129 52q43 0 77.5 -17.5t60 -45t39 -64.5t13.5 -74t-12 -70q-18 -55 -37 -109.5t-45.5 -97.5t-65.5 -70.5t-98 -27.5q-35 0 -67.5 12.5t-57.5 34.5q-55 -49 -127 -49q-43 0 -79 16.5 t-61.5 44t-41 63.5t-15.5 75z" />
<glyph unicode="#" horiz-adv-x="1714" d="M109 733q0 43 15 80t40.5 64.5t61.5 43t77 15.5h4q-39 27 -60.5 70t-21.5 96q0 43 15.5 80t41 64.5t61.5 43t77 15.5h168q12 41 26.5 83t28.5 82v3q20 66 76.5 101.5t120.5 35.5q35 0 63.5 -12.5t50 -33t36 -44t22.5 -47.5q18 66 75.5 102.5t118.5 36.5q41 0 75 -17.5 t58.5 -45t38 -64.5t13.5 -76q0 -33 -9 -57l-14 -47h43q39 0 75 -15.5t62.5 -43t42 -64.5t15.5 -80t-15.5 -80t-42 -64.5t-62.5 -44t-75 -16.5h-4q37 -29 59.5 -71t22.5 -93q0 -43 -15.5 -80t-41 -64.5t-61.5 -44t-77 -16.5h-170q-18 -59 -35.5 -114.5t-44 -98.5t-65.5 -69.5 t-98 -26.5q-66 0 -114 40t-65 99q-20 -66 -77.5 -100.5t-120.5 -34.5q-41 0 -74 17.5t-56.5 46t-36.5 64.5t-13 73q0 33 8 57l14 47h-43q-41 0 -77 16.5t-61.5 44t-40.5 64.5t-15 80z" />
<glyph unicode="$" horiz-adv-x="1255" d="M104 438q0 41 15.5 79t43 66.5t62.5 45t76 16.5q70 0 125 -49v129q-59 33 -111.5 78t-91.5 102.5t-62.5 129t-23.5 157.5q0 150 80 263.5t211 164.5q10 74 64.5 124t128.5 50q72 0 126 -49t66 -121q121 -41 199 -125t106 -203q6 -25 6 -51q0 -66 -40 -120t-107 -70 q-23 -6 -41 -6q-66 0 -119 43v-72q154 -82 244 -213t90 -305q0 -84 -26.5 -162t-72.5 -141.5t-107.5 -110.5t-131.5 -70q-12 -72 -66.5 -120t-125.5 -48q-72 0 -126.5 49.5t-66.5 120.5q-63 20 -121.5 61.5t-103.5 95.5t-72 120.5t-27 140.5z" />
<glyph unicode="%" horiz-adv-x="1511" d="M113 1096v221q0 74 25.5 135t71.5 104t109.5 68t141.5 25q145 0 238.5 -79t109.5 -208l86 174q27 53 75 83t101 30q45 0 84 -21h-2q53 -27 83 -75t30 -103q0 -51 -21 -92l-239 -486q16 4 32 5h33q78 0 141.5 -25t109.5 -69t71.5 -105.5t25.5 -134.5v-219 q0 -74 -25.5 -134.5t-71.5 -105.5t-109.5 -69.5t-141.5 -24.5q-74 0 -136.5 22.5t-108.5 64.5t-73.5 98t-31.5 124l-98 -197q-27 -53 -75 -81.5t-104 -28.5q-43 0 -82 18h3q-53 27 -83 75t-30 103q0 45 22 95l238 485q-12 -2 -24.5 -3t-26.5 -1q-78 0 -141.5 24.5 t-109.5 68.5t-71.5 104.5t-25.5 134.5z" />
<glyph unicode="&#x26;" horiz-adv-x="1478" d="M154 518q0 100 29.5 192.5t86.5 163.5q-35 57 -50 136.5t-15 150.5q0 104 37 193.5t100.5 155t149.5 103.5t184 38q61 0 111.5 -11.5t89 -29t67.5 -37t45 -33.5q35 -31 50.5 -69.5t15.5 -79.5q0 -39 -13.5 -76t-39 -66.5t-61.5 -47t-79 -17.5q-29 0 -51.5 9t-44 21.5 t-43 21.5t-47.5 9q-29 0 -45.5 -11t-24.5 -24.5t-10 -28t-2 -20.5t2 -23.5t10 -36t24.5 -32.5t45.5 -14h526q84 0 138.5 -58.5t54.5 -144.5t-54.5 -144.5t-138.5 -58.5h-6v-131q-4 -117 -43 -213t-106.5 -166.5t-161.5 -109.5t-209 -39t-211 39t-166 109.5t-107.5 166.5 t-37.5 213z" />
<glyph unicode="'" horiz-adv-x="577" d="M63 1270q0 20 4.5 38.5t10.5 37.5l59 167q23 63 75 99.5t112 36.5q27 0 61 -11h-2q61 -23 96 -74t35 -114q0 -35 -12 -72q-16 -55 -34.5 -109.5t-45.5 -98.5t-67 -70.5t-99 -26.5q-41 0 -77 16.5t-61.5 44t-40 63.5t-14.5 73z" />
<glyph unicode="(" horiz-adv-x="827" d="M102 803q0 123 21.5 242.5t67 229t115 206t163.5 174.5h2q55 43 119 43q39 0 74.5 -15.5t63.5 -43t43 -64.5t15 -78q0 -43 -18 -87t-53 -73q-109 -86 -166 -222t-57 -312q0 -182 58 -328.5t163 -230.5q37 -29 53 -72t16 -86q0 -47 -17 -85t-45 -64.5t-62.5 -40 t-71.5 -13.5q-66 0 -115 41q-96 76 -164.5 177.5t-115 217t-68 238.5t-21.5 246z" />
<glyph unicode=")" horiz-adv-x="827" d="M43 1497q0 39 15.5 76t43 64.5t62.5 44t76 16.5q61 0 116 -43q94 -78 164 -174.5t116 -206t67.5 -229t21.5 -242.5t-21.5 -246t-66.5 -238.5t-114.5 -217t-164.5 -177.5q-27 -23 -56.5 -32t-57.5 -9q-37 0 -73 14.5t-63.5 41t-45 64.5t-17.5 87q0 41 16.5 83t53.5 71 q104 84 162.5 230.5t58.5 328.5q0 174 -57.5 311t-163.5 223q-72 66 -72 160z" />
<glyph unicode="*" horiz-adv-x="1128" d="M84 895q0 47 21.5 92t62.5 74l51 35q-66 47 -100.5 89t-34.5 115q0 43 16.5 80t44 63.5t63.5 42t73 15.5q49 0 90 -26q10 76 64 125t128 49t128 -49.5t65 -124.5q41 27 94 26q39 0 75 -15.5t62.5 -43t41.5 -64.5t15 -80q0 -49 -20 -93t-61 -72l-54 -37l54 -35 q41 -31 61 -77t20 -93q0 -43 -17 -80t-45 -62.5t-63.5 -41t-72.5 -15.5q-47 0 -90 25q-10 -74 -64.5 -124t-128.5 -50t-128 50t-64 124q-41 -27 -92 -27q-41 0 -76 16.5t-61.5 44t-42 64.5t-15.5 80z" />
<glyph unicode="+" horiz-adv-x="1202" d="M102 707q0 43 15.5 79.5t41 64.5t61.5 43t77 15h109v101q0 43 15 79.5t40.5 64.5t61.5 44t77 16t77 -16t61.5 -44t41 -64.5t15.5 -79.5v-101h110q41 0 77 -15t61.5 -43t41 -64.5t15.5 -79.5t-15.5 -80t-41 -64.5t-61.5 -43t-77 -15.5h-110v-101q0 -43 -15.5 -79.5 t-41 -64.5t-61.5 -43t-77 -15t-77 15t-61.5 43t-40.5 64.5t-15 79.5v101h-109q-41 0 -77 15.5t-61.5 43t-41 64.5t-15.5 80z" />
<glyph unicode="," horiz-adv-x="614" d="M43 111q0 37 12 73l60 168q23 63 75 99t111 36q45 0 80 -17t59.5 -45t36.5 -63.5t12 -72.5q0 -18 -2 -35.5t-8 -36.5q-18 -57 -36.5 -112.5t-44 -98.5t-64.5 -69.5t-98 -26.5q-43 0 -79 16.5t-60.5 44t-39 64.5t-14.5 76z" />
<glyph unicode="-" horiz-adv-x="974" d="M82 784q0 43 15.5 80t41 64.5t61.5 43t76 15.5h422q41 0 77 -15.5t61.5 -43t41 -64.5t15.5 -80t-15.5 -79.5t-41 -64.5t-61.5 -44t-77 -16h-422q-41 0 -76.5 16t-61 44t-41 64.5t-15.5 79.5z" />
<glyph unicode="." horiz-adv-x="552" d="M41 193v92q0 43 15.5 79.5t41 64.5t61.5 43t77 15t76.5 -15t61 -43t41 -64.5t15.5 -79.5v-92q0 -43 -15.5 -80t-41 -65t-61.5 -43t-76 -15q-41 0 -77 15t-61.5 43t-41 65t-15.5 80z" />
<glyph unicode="/" horiz-adv-x="1216" d="M41 33q0 45 22 94l760 1532q27 53 74 83t102 27q43 0 79 -16t61.5 -44t40 -63.5t14.5 -74.5q0 -49 -20 -90l-762 -1536q-27 -53 -75 -82t-104 -29q-43 0 -78.5 17.5t-60 45t-39 63.5t-14.5 73z" />
<glyph unicode="0" horiz-adv-x="1282" d="M123 467v707q2 111 45 198.5t114.5 149t164 94.5t194.5 33q106 0 200.5 -35t164 -97.5t110.5 -150.5t43 -192v-707q-2 -111 -45 -199t-114.5 -149.5t-165 -95t-193.5 -33.5q-106 0 -199.5 35.5t-163 99t-111.5 151t-44 191.5z" />
<glyph unicode="1" horiz-adv-x="931" d="M61 1124q0 43 15.5 80t42 64.5t61.5 43t76 15.5q45 0 62.5 38t17.5 81q0 86 55 144.5t139 58.5q39 0 75 -15.5t62.5 -43t42 -64.5t15.5 -80v-1067q0 -143 2 -176q0 -43 -15.5 -82t-42 -68.5t-62.5 -46t-75 -16.5q-41 0 -76.5 15t-62 43t-42 65t-15.5 80v735 q-20 -4 -38.5 -5t-41.5 -1q-41 0 -76 15t-61.5 43t-42 64.5t-15.5 79.5z" />
<glyph unicode="2" horiz-adv-x="1241" d="M104 205q0 27 7.5 57.5t25.5 54.5q160 223 270.5 385t179 268.5t100.5 161t32 64.5q0 16 -12.5 25.5t-30 14.5t-34.5 6t-28 1q-8 0 -23.5 -1t-31.5 -4t-28.5 -10t-14.5 -20q-16 -70 -71.5 -113.5t-122.5 -43.5q-41 0 -77 16t-61.5 44t-40 64.5t-14.5 75.5q0 23 6 47 q23 86 69 150.5t109.5 110t140 68t160.5 22.5q106 0 196.5 -34t157 -94.5t103.5 -143.5t37 -181q0 -78 -27.5 -152.5t-81 -166t-132.5 -205t-181 -266.5h279q41 0 76.5 -15.5t61 -43.5t41 -64.5t15.5 -79.5t-15.5 -80t-41 -64.5t-61 -43t-76.5 -15.5h-668q-90 6 -141.5 66.5 t-51.5 138.5z" />
<glyph unicode="3" horiz-adv-x="1212" d="M82 389q0 37 12 73t37 64.5t60.5 46t82.5 17.5q59 0 111.5 -35t75.5 -96q23 -63 119 -64q63 0 97 32t34 91q0 70 -35 100.5t-96 30.5q-37 0 -72 15.5t-62.5 42t-44 63.5t-16.5 82q0 43 15.5 80t42 64.5t61.5 43t76 15.5q29 0 45 12t24 28.5t10.5 33t2.5 22.5t-2.5 21.5 t-10.5 31t-24.5 27.5t-44.5 12q-66 0 -76 -41q-18 -70 -73.5 -110.5t-121.5 -40.5q-41 0 -74.5 17t-58 46t-39 66t-14.5 77q0 25 6 54q20 80 64.5 142.5t103.5 105.5t131 66.5t150 23.5q106 0 193 -39t149.5 -105.5t96.5 -152.5t34 -181q0 -72 -16.5 -156.5t-49.5 -142.5 q55 -72 85 -164t30 -190q0 -115 -40 -211t-109.5 -166.5t-164 -110.5t-204.5 -40q-84 0 -161 22.5t-141.5 65.5t-111.5 103.5t-74 135.5q-12 33 -12 72z" />
<glyph unicode="4" horiz-adv-x="1167" d="M41 451q0 47 25 94l524 997q27 51 74 79t100 28q41 0 75.5 -16.5t60.5 -44t40 -64.5t14 -78v-811q53 -27 87 -82t34 -115q0 -70 -33.5 -116t-87.5 -64v-65q0 -43 -15 -80t-41 -65t-61.5 -43t-76.5 -15t-76 15t-61.5 43t-42 65t-15.5 80v53h-329q-43 0 -79 17.5t-61.5 46 t-40 65.5t-14.5 76z" />
<glyph unicode="5" horiz-adv-x="1222" d="M113 391q0 47 16 85t44 63.5t62.5 39t71.5 13.5q55 0 106.5 -33t75.5 -98q23 -66 121 -66q63 0 97 32t34 91q0 68 -35.5 110t-95.5 42h-252q-88 4 -142 62.5t-54 139.5q0 14 2 23l63 578q4 37 20.5 68.5t43 56t59.5 38t70 13.5h442q39 0 75 -15.5t62.5 -43t42 -64.5 t15.5 -80t-15.5 -80t-42 -64.5t-62.5 -43t-75 -15.5h-270q-4 -35 -7 -84t-7 -84h32q119 0 215.5 -41t164 -113.5t104 -171t36.5 -210.5q0 -113 -39.5 -213.5t-109.5 -175t-165 -117.5t-204 -43q-94 0 -183 31.5t-159.5 87t-113.5 128t-43 154.5z" />
<glyph unicode="6" horiz-adv-x="1251" d="M123 512v625q4 111 42 205t102.5 162.5t154.5 106.5t201 38q92 0 181 -25t158.5 -74t111.5 -122.5t42 -172.5q0 -41 -14.5 -77.5t-41 -64.5t-61 -44t-77.5 -16q-59 0 -109.5 35.5t-73.5 99.5q-18 55 -110 55q-117 0 -117 -106v-191q12 8 34.5 16.5t49.5 14.5t52.5 10 t41.5 4q240 0 354.5 -126t114.5 -349q0 -113 -40 -209t-110.5 -166.5t-164.5 -110.5t-203 -40q-115 0 -210 43t-163.5 114.5t-106.5 167t-38 197.5z" />
<glyph unicode="7" horiz-adv-x="1110" d="M41 1446q0 43 15.5 80t42 64.5t61.5 43t76 15.5h636q43 -2 80 -19.5t62.5 -45.5t40 -63.5t14.5 -74.5q0 -29 -10 -64l-410 -1255q-23 -61 -75 -98t-113 -37q-16 0 -30.5 2t-31.5 8h2q-63 25 -98 79t-35 116q0 27 11 61q57 170 101 302l78 234q34 101 56.5 173.5 t38.5 122.5q37 117 43 153h-360q-41 0 -76 15.5t-61.5 43t-42 64.5t-15.5 80z" />
<glyph unicode="8" horiz-adv-x="1265" d="M113 516q0 102 27.5 204.5t86.5 174.5q-31 57 -48 134t-17 142q0 102 37 190.5t100 152t149.5 99.5t184.5 36q104 0 190 -38t148.5 -103.5t97.5 -151.5t35 -185q0 -72 -16.5 -145.5t-49.5 -130.5q53 -72 84 -176.5t31 -202.5q-4 -115 -42 -211t-105.5 -166.5 t-160.5 -109.5t-206 -39q-115 0 -212 41t-167 112.5t-108.5 167.5t-38.5 205z" />
<glyph unicode="9" horiz-adv-x="1282" d="M123 1124q0 115 40 211.5t109.5 166t164.5 108.5t204 39q100 0 193.5 -35t165 -101.5t115.5 -164t44 -222.5v-626q0 -113 -38 -207t-104.5 -162t-159.5 -105.5t-204 -37.5q-70 0 -154.5 23.5t-158.5 72.5t-124 124t-50 175q0 47 16.5 85t44 63.5t63.5 40t72 14.5 q55 0 106.5 -33t78.5 -104q20 -55 106 -56q53 0 85 29t32 78v168q-31 -8 -61.5 -14.5t-65.5 -6.5q-272 0 -396 122t-124 355z" />
<glyph unicode=":" horiz-adv-x="552" d="M41 193v92q0 43 15.5 79.5t41 64.5t61.5 43t77 15t76.5 -15t61 -43t41 -64.5t15.5 -79.5v-92q0 -43 -15.5 -80t-41 -65t-61.5 -43t-76 -15q-41 0 -77 15t-61.5 43t-41 65t-15.5 80zM41 918v92q0 43 15.5 79.5t41 64.5t61.5 44t77 16t76.5 -16t61 -44t41 -64.5t15.5 -79.5 v-92q0 -43 -15.5 -80t-41 -65t-61.5 -43t-76 -15q-41 0 -77 15t-61.5 43t-41 65t-15.5 80z" />
<glyph unicode=";" horiz-adv-x="618" d="M43 109q0 41 14 75v-4l60 172q23 63 75 99t111 36q27 0 62 -10h-3q61 -23 96.5 -74t35.5 -114q0 -35 -13 -72l2 2q-18 -59 -36.5 -114.5t-45 -98.5t-65.5 -69.5t-98 -26.5q-43 0 -78 16.5t-61.5 44t-41 63.5t-14.5 75zM74 920v90q0 43 15 79.5t41 64.5t61.5 44t76.5 16 t77 -16t61.5 -44t41 -64.5t15.5 -79.5v-90q0 -43 -15.5 -80t-41 -64.5t-61.5 -43t-77 -15.5t-76.5 15.5t-61.5 43t-41 64.5t-15 80z" />
<glyph unicode="&#x3c;" horiz-adv-x="1048" d="M123 602q0 39 13.5 76t41.5 65l410 410q29 29 66.5 42t72.5 15q43 0 79 -18t61.5 -48t41 -68t15.5 -75q0 -76 -60 -135q-90 -90 -141 -142t-78 -80t-36 -36t-13 -8q4 0 12 -7t34 -34t78 -80t144 -145q29 -29 42.5 -67t13.5 -74q0 -82 -54 -140l-2 -4q-63 -59 -139 -59 q-78 0 -137 59l-410 408q-29 29 -41 67.5t-14 77.5z" />
<glyph unicode="=" horiz-adv-x="1015" d="M82 518q0 39 12 72t35 61q-23 27 -35 60.5t-12 72.5q0 43 15.5 80t42 64.5t61.5 43t75 15.5h463q39 0 75 -15.5t62.5 -43t42 -64.5t15.5 -80q0 -39 -13.5 -72.5t-35.5 -60.5q23 -29 36 -61.5t13 -71.5q0 -43 -15.5 -80t-42 -64.5t-62.5 -43t-75 -15.5h-463 q-41 0 -75.5 15.5t-61 43t-42 64.5t-15.5 80z" />
<glyph unicode="&#x3e;" horiz-adv-x="1048" d="M125 201q0 76 59 135q90 90 141.5 142t78 80t36 36t13.5 8q-4 0 -12.5 7t-35 34t-78 80t-143.5 145q-29 29 -42 66t-13 74q0 84 53 141l2 4q31 29 67 43t73 14t72.5 -14t64.5 -43l409 -408q29 -29 41.5 -68.5t14.5 -76.5q0 -41 -13.5 -77t-42.5 -64l-409 -410 q-31 -31 -68 -44t-71 -13q-43 0 -79 18.5t-61.5 48t-41 67.5t-15.5 75z" />
<glyph unicode="?" horiz-adv-x="1138" d="M51 1139q0 111 44 198.5t117 149t167 94.5t192 33q104 0 197.5 -34t164.5 -95.5t112.5 -147.5t41.5 -188q0 -92 -23.5 -160.5t-60 -119t-78.5 -85t-79 -61.5q-29 -20 -44.5 -32.5t-23.5 -28t-10 -36t-2 -55.5v-51q0 -66 -37 -119q16 -27 26.5 -56.5t10.5 -61.5v-90 q0 -43 -15.5 -80t-42 -65t-62.5 -43t-75 -15q-41 0 -76.5 15t-61 43t-41 65t-15.5 80v90q0 68 35 118q-35 51 -35 117v51v64q0 49 4 95t20.5 91t49 90t92.5 90q20 14 46.5 31t51.5 34t41 37.5t16 45.5q0 35 -41 48t-86 13q-47 0 -89 -15t-42 -54q0 -43 -15 -80t-41 -64.5 t-61.5 -43t-76.5 -15.5t-76 15.5t-61.5 43t-42 64.5t-15.5 80z" />
<glyph unicode="@" horiz-adv-x="1630" d="M102 631v375q0 143 53.5 261.5t148.5 202.5t226.5 131.5t286.5 47.5q141 0 267 -40t219 -118v2q225 -182 225 -487v-293q0 -82 -14.5 -146.5t-47.5 -115.5q-16 -27 -46.5 -53.5t-70.5 -48t-89.5 -36t-102.5 -14.5q-106 0 -174 39l-20 -10q23 -27 42 -56.5t19 -97.5 q0 -86 -54.5 -135t-152.5 -49q-154 0 -285 45t-226 129t-149.5 203t-54.5 264z" />
<glyph unicode="A" horiz-adv-x="1345" d="M31 190q0 35 12 70l446 1260q27 59 73 95t112 36q59 0 111.5 -40t74.5 -102l440 -1247q12 -37 13 -74q0 -41 -14.5 -76.5t-40 -63.5t-62.5 -44t-80 -16q-61 0 -111.5 36.5t-74.5 98.5q-8 20 -17 47q-8 23 -19 54.5t-26 70.5h-389q-14 -39 -24.5 -69.5t-18.5 -53.5 q-8 -27 -16 -47q-25 -61 -80 -99t-117 -38q-43 0 -78.5 17.5t-60.5 46t-39 65t-14 73.5z" />
<glyph unicode="B" d="M123 207v1225q0 43 15.5 80.5t42 65.5t63.5 44t78 16h325q102 -6 185 -48t141.5 -108.5t90.5 -152.5t32 -178q0 -127 -52 -236q66 -84 95.5 -176t29.5 -200q0 -109 -33.5 -206t-96 -170t-151.5 -117t-198 -46h-368q-41 0 -78 16.5t-63.5 44t-42 65.5t-15.5 81z" />
<glyph unicode="C" horiz-adv-x="1232" d="M102 475v688q6 115 51.5 205t117 152.5t164.5 95.5t196 33q106 -4 202.5 -40t169 -98.5t115.5 -149.5t43 -198q0 -90 -58.5 -149.5t-139.5 -59.5q-84 0 -141.5 59.5t-57.5 149.5q0 39 -43 55.5t-90 16.5t-89 -16.5t-42 -55.5v-688q0 -39 42 -55.5t89 -16.5t90 16.5 t43 55.5q0 90 57.5 149.5t141.5 59.5q82 0 140 -59.5t58 -149.5q0 -111 -45 -201t-119.5 -153.5t-170 -97t-195.5 -33.5q-109 0 -204 35.5t-167 100t-114 154t-44 195.5z" />
<glyph unicode="D" horiz-adv-x="1331" d="M123 207v1225q0 43 15.5 80.5t42 65.5t63.5 44t78 16h380q113 -2 208.5 -36.5t165 -97t110.5 -151.5t43 -200v-666q-6 -117 -50 -208t-115 -152t-164 -94t-198 -33h-380q-41 0 -78 16.5t-63.5 44t-42 65.5t-15.5 81z" />
<glyph unicode="E" horiz-adv-x="1189" d="M123 207v1225q0 43 15.5 80.5t42 65.5t63.5 44t78 16h583q41 0 77 -16t63.5 -44t43 -65.5t15.5 -80.5t-15.5 -81t-43 -67t-63.5 -45t-77 -16h-385v-187h342q41 0 78 -16t63.5 -44t42 -66t15.5 -81t-15.5 -80.5t-42 -66.5t-63.5 -45t-78 -16h-342v-205h400 q41 0 76.5 -16.5t63 -45t43 -66.5t15.5 -81t-15.5 -81t-43 -65.5t-63 -44t-76.5 -16.5h-598q-41 0 -78 16.5t-63.5 44t-42 65.5t-15.5 81z" />
<glyph unicode="F" horiz-adv-x="1134" d="M123 197v1235q0 43 15.5 80.5t42 65.5t63.5 44t78 16h563q41 0 76.5 -16t63.5 -44t43 -65.5t15 -80.5t-15 -81t-43 -67t-63.5 -45t-76.5 -16h-365v-248h322q41 0 76.5 -16.5t63.5 -44t43 -65.5t15 -81t-15 -81t-43 -66.5t-63.5 -45t-76.5 -16.5h-322v-362 q0 -43 -15.5 -81t-42 -65.5t-63.5 -44t-77 -16.5q-41 0 -78 16.5t-63.5 44t-42 65.5t-15.5 81z" />
<glyph unicode="G" horiz-adv-x="1251" d="M102 475v688q0 117 45.5 207t120 151.5t169.5 94.5t194 33q109 -2 205 -38t167.5 -98.5t113.5 -151.5t42 -198q0 -43 -15.5 -82t-43 -66.5t-63.5 -44t-76 -16.5q-84 0 -141.5 60.5t-57.5 148.5q0 39 -42 55.5t-89 16.5t-89 -16.5t-42 -55.5v-323q55 51 131 51h330 q41 0 76.5 -16.5t63 -44t43 -65.5t15.5 -81v-209q0 -115 -45 -205t-119.5 -152.5t-170 -95t-193.5 -32.5q-109 0 -205 34.5t-168 99t-114 153.5t-42 198z" />
<glyph unicode="H" horiz-adv-x="1300" d="M123 197v1245q0 43 15.5 81t42 65.5t63.5 44t78 16.5t76.5 -16.5t63 -44t43 -65.5t15.5 -81v-410h262v410q0 43 15.5 81t42 65.5t62.5 44t77 16.5t78 -16.5t63.5 -44t42 -65.5t15.5 -81v-1245q0 -43 -15.5 -81t-42 -65.5t-63.5 -44t-78 -16.5t-77 16.5t-62.5 44t-42 65.5 t-15.5 81v419h-262v-419q0 -43 -15.5 -81t-43 -65.5t-63.5 -44t-76 -16.5q-41 0 -78 16.5t-63.5 44t-42 65.5t-15.5 81z" />
<glyph unicode="I" horiz-adv-x="643" d="M123 197v1245q0 43 15.5 81t43 65.5t63.5 44t77 16.5t77.5 -16.5t63 -44t42 -65.5t15.5 -81v-1245q0 -43 -15.5 -81t-42 -65.5t-63.5 -44t-77 -16.5q-41 0 -77 16.5t-63.5 44t-43 65.5t-15.5 81z" />
<glyph unicode="J" horiz-adv-x="890" d="M41 197q0 43 15.5 80.5t43 65.5t63.5 44t77 16q47 0 89 16.5t42 55.5v967q0 43 15 81t43 65.5t63.5 44t76.5 16.5t78 -16.5t63.5 -44t42 -65.5t15.5 -81v-967q-6 -119 -50 -210t-115 -152.5t-164 -92t-199 -30.5q-41 0 -77 16.5t-63.5 44t-43 65.5t-15.5 81z" />
<glyph unicode="K" horiz-adv-x="1239" d="M123 197v1245q0 43 15.5 81t43 65.5t63.5 44t77 16.5t77.5 -16.5t63 -44t42 -65.5t15.5 -81v-230l287 361q68 74 154 74q84 0 141 -59.5t57 -143.5q0 -76 -43 -131l-299 -381l342 -637v2q27 -47 27 -102q0 -37 -14.5 -74t-39 -65.5t-60.5 -46t-79 -17.5q-53 0 -103 28.5 t-79 79.5l-268 494l-23 -29v-368q0 -43 -15.5 -81t-42 -65.5t-63.5 -44t-77 -16.5q-41 0 -77 16.5t-63.5 44t-43 65.5t-15.5 81z" />
<glyph unicode="L" horiz-adv-x="1077" d="M88 207v1235q0 43 15.5 81t42 65.5t63.5 44t78 16.5t77.5 -16.5t63.5 -44t42 -65.5t15 -81v-1026h365q41 0 77 -16.5t63.5 -45t43 -66.5t15.5 -81t-15.5 -81t-43 -65.5t-63.5 -44t-77 -16.5h-563q-41 0 -78 16.5t-63.5 44t-42 65.5t-15.5 81z" />
<glyph unicode="M" horiz-adv-x="1468" d="M123 197v1245q0 74 45 133t117 70h-4q10 2 19 3t19 1q57 0 109.5 -35t77.5 -92q57 -139 97 -234.5t64.5 -157t38 -95.5t19.5 -49t7 -17t3 -2l228 555v2q25 55 76 90t110 35q10 0 19.5 -1t19.5 -3h-4q72 -10 117 -69.5t45 -133.5v-1245q0 -43 -15.5 -81t-42 -65.5 t-62.5 -44t-77 -16.5t-78 16.5t-63.5 44t-42 65.5t-15.5 81v239q-12 -35 -33.5 -70.5t-49 -64.5t-61.5 -46t-71 -17q-59 0 -107 35.5t-75 93.5q-20 43 -27 59l-6 12v-241q0 -43 -15.5 -81t-42 -65.5t-63.5 -44t-77 -16.5q-41 0 -77 16.5t-63.5 44t-43 65.5t-15.5 81z" />
<glyph unicode="N" horiz-adv-x="1312" d="M123 197v1245q0 72 43 128t110 72h-4q25 6 50 7q53 0 99 -30t75 -81q100 -188 158.5 -296.5t86.5 -162.5q35 -63 45 -80v2v441q0 43 15.5 81t43 65.5t63.5 44t77 16.5t78 -16.5t63.5 -44t42 -65.5t15.5 -81l6 -1245q0 -41 -14.5 -78t-40 -66.5t-61.5 -47t-77 -17.5 q-53 0 -102 29.5t-78 80.5q-106 195 -165.5 306.5t-88.5 164.5q-35 63 -43 80v-452q0 -43 -15.5 -81t-42 -65.5t-63.5 -44t-77 -16.5q-41 0 -77 16.5t-63.5 44t-43 65.5t-15.5 81z" />
<glyph unicode="O" d="M102 475v688q0 109 41 198t112 153.5t167 99.5t209 35q109 -2 205 -38t167.5 -98.5t113.5 -151.5t42 -198v-688q0 -106 -40 -195.5t-110.5 -154t-167 -100t-210.5 -35.5q-115 0 -212 34.5t-168 99t-110 153.5t-39 198z" />
<glyph unicode="P" horiz-adv-x="1163" d="M123 197v1235q0 43 15.5 80.5t42 65.5t63.5 44t78 16h329q109 0 201 -44t160 -130v2q55 -70 82.5 -161t27.5 -195q0 -121 -35.5 -218t-99 -166t-149.5 -106.5t-187 -37.5h-131v-385q0 -43 -15.5 -81t-43 -65.5t-63.5 -44t-76 -16.5q-41 0 -78 16.5t-63.5 44t-42 65.5 t-15.5 81z" />
<glyph unicode="Q" horiz-adv-x="1318" d="M102 475v688q0 115 44 205t118 152.5t169 95.5t198 33q113 0 209 -35t166.5 -98.5t111.5 -152.5t41 -200v-688q0 -96 -30.5 -179t-90.5 -146q41 0 77 -16.5t63.5 -44.5t43 -65.5t15.5 -80.5t-15.5 -81t-43 -65.5t-63.5 -44t-77 -16.5q-150 0 -277.5 65.5t-197.5 192.5 q-102 12 -187 51t-145.5 100.5t-94.5 144.5t-34 185z" />
<glyph unicode="R" horiz-adv-x="1216" d="M123 197v1235q0 43 15.5 80.5t42 65.5t63.5 44t78 16h331q111 0 199 -45t147.5 -118.5t91 -169t31.5 -195.5q0 -131 -47 -244.5t-145 -191.5l184 -387q20 -41 21 -90q0 -37 -13.5 -74t-39 -65.5t-61.5 -47t-81 -18.5q-57 0 -106.5 30.5t-77.5 90.5l-226 469h-10v-385 q0 -43 -15.5 -81t-42 -65.5t-63.5 -44t-77 -16.5q-41 0 -78 16.5t-63.5 44t-42 65.5t-15.5 81z" />
<glyph unicode="S" horiz-adv-x="1273" d="M102 430q0 45 16.5 84t44 68.5t65.5 46t81 16.5q72 0 125 -50t68 -126q4 -23 20.5 -35t38 -18t42 -7t30.5 -1q51 0 97 20.5t46 63.5q0 29 -12 46t-37 31.5t-59.5 27.5t-79.5 32q-82 35 -163 81t-144.5 110.5t-103.5 151.5t-40 204q0 106 41 193t109.5 149.5t159 96.5 t188.5 34q92 0 174 -25t147.5 -72t112.5 -115.5t70 -154.5v2q4 -14 6 -27.5t2 -27.5q0 -37 -14.5 -73t-40 -63.5t-61.5 -45t-81 -17.5q-63 0 -121.5 42t-74.5 108q-10 35 -43 44t-76 9q-14 0 -30.5 -4t-32 -11.5t-25.5 -20.5t-10 -32q0 -31 49 -68.5t162 -84.5 q92 -39 169.5 -87t134 -110.5t88 -142.5t31.5 -180q0 -117 -46 -209.5t-121.5 -158t-173 -100t-197.5 -34.5q-106 0 -196.5 29.5t-159 85t-113.5 132t-60 171.5q-2 8 -2 22z" />
<glyph unicode="T" horiz-adv-x="1171" d="M20 1432q0 43 15.5 80.5t43 65.5t63.5 44t77 16h733q41 0 77 -16t63.5 -44t43 -65.5t15.5 -80.5t-15.5 -81t-43 -67t-63.5 -45t-77 -16h-168v-1026q0 -43 -15 -81t-43 -65.5t-63.5 -44t-76.5 -16.5t-78 16.5t-63.5 44t-42 65.5t-15.5 81v1026h-168q-41 0 -77 16t-63.5 45 t-43 67t-15.5 81z" />
<glyph unicode="U" d="M102 475v967q0 43 15.5 81t42 65.5t63.5 44t78 16.5t78 -16.5t63.5 -44t42 -65.5t15.5 -81v-967q0 -39 42 -55.5t89 -16.5t89 16.5t42 55.5v967q0 43 15.5 81t42 65.5t63.5 44t78 16.5t76.5 -16.5t63 -44t43 -65.5t15.5 -81v-967q0 -106 -40 -195.5t-110.5 -154 t-167 -100t-210.5 -35.5q-115 0 -211 34.5t-167 98t-111 153.5t-40 199z" />
<glyph unicode="V" horiz-adv-x="1148" d="M41 1438q0 72 42 130t112 74h-5q20 6 46 7q70 0 126 -44t72 -114v2q45 -184 70.5 -289.5t40.5 -156.5q14 -61 20 -80v2l152 530v4q20 66 72.5 106t117.5 40q33 0 58 -9l-4 2q68 -18 107.5 -74.5t39.5 -121.5q0 -29 -10 -64v4l-357 -1247q-20 -68 -72.5 -108.5 t-117.5 -40.5q-70 0 -122 45t-69 112v-2q-78 313 -156.5 623.5t-156.5 622.5q-6 24 -6 47z" />
<glyph unicode="W" horiz-adv-x="1810" d="M41 1438q0 72 42 130t112 74h-5q20 6 46 7q70 0 126 -44t72 -114v2q43 -172 70.5 -274.5t43 -157.5t22.5 -72l8 -16q2 27 18 94q14 57 42 159.5t77 272.5q18 66 72.5 108t117.5 42q66 0 120 -45t71 -111q47 -188 73.5 -292.5t40 -156t16.5 -62.5l3 -11v2l147 524 q18 68 71.5 110t121.5 42q31 0 55 -9l-4 2q66 -18 106.5 -75.5t40.5 -122.5q0 -33 -8 -58l-354 -1247q-20 -68 -72.5 -108.5t-118.5 -40.5t-121 45t-71 110q-43 168 -68.5 281t-39 182.5t-18.5 99.5l-5 29v-2q0 -2 -5 -21.5t-20.5 -81t-46.5 -178t-80 -315.5 q-20 -80 -73.5 -114.5t-116.5 -34.5q-70 0 -123 45t-70 112v-2l-309 1246q-6 24 -6 47z" />
<glyph unicode="X" horiz-adv-x="1175" d="M41 197q0 53 27 100v-2q39 74 74.5 138.5t70.5 128t70.5 128t74.5 137.5l-280 514q-14 23 -19.5 48.5t-5.5 52.5q0 37 13.5 73.5t39 66.5t61.5 47.5t79 17.5q53 0 102 -28t78 -79l160 -293l162 295q29 51 75.5 78t100.5 29q45 0 81.5 -18.5t62.5 -47.5t40 -65.5t14 -73.5 q0 -57 -26 -103v2q-39 -72 -74 -134t-67.5 -121.5t-66.5 -122t-73 -134.5l293 -534q25 -49 25 -100q0 -55 -27 -104.5t-78 -78.5l2 2q-43 -25 -92 -24q-51 0 -101.5 27.5t-76.5 76.5l-172 314l-170 -314q-29 -51 -78 -77.5t-102 -28.5q-43 0 -80 17.5t-62.5 46t-40 65.5 t-14.5 78z" />
<glyph unicode="Y" horiz-adv-x="1185" d="M113 848v594q0 43 15 81t43 65.5t63.5 44t76.5 16.5t78 -16.5t63.5 -44t42 -65.5t15.5 -81v-594q0 -10 10 -15.5t23.5 -8.5t28 -4t20.5 -1q8 0 21.5 1t27.5 4t24.5 8.5t10.5 15.5v594q0 43 15.5 81t43 65.5t63.5 44t76 16.5q41 0 78 -16.5t63.5 -44t42 -65.5t15.5 -81 v-1006q-6 -104 -46 -187t-105.5 -140.5t-150.5 -88t-179 -30.5t-174 26.5t-141.5 74.5t-102.5 116.5t-55 152.5q-2 10 -3 18.5t-1 16.5q0 55 25.5 101.5t68.5 72.5q-47 57 -71.5 128t-24.5 151z" />
<glyph unicode="Z" horiz-adv-x="1202" d="M74 211q0 47 24 94q84 156 149.5 278t116 216t87 161.5t61.5 114.5q59 111 80 148h-320q-41 0 -77.5 16t-63.5 45t-42 67t-15 81t15 80.5t42 65.5t63.5 44t77.5 16h660q47 -2 84 -20.5t61.5 -47t37.5 -64.5t13 -74q0 -25 -5 -50.5t-17 -48.5q-117 -217 -198 -368.5 t-136 -253t-87 -160.5t-48 -89t-21 -38l-4 -8h320q41 0 76.5 -16.5t63.5 -45t43 -66.5t15 -81t-15 -81t-43 -65.5t-63.5 -44t-76.5 -16.5h-660q-43 2 -79.5 21.5t-63.5 48t-41 65.5t-14 76z" />
<glyph unicode="[" horiz-adv-x="808" d="M123 -127v1638q0 82 54 139.5t132 57.5h262q39 0 73 -15.5t59.5 -42t40 -62.5t14.5 -77t-14.5 -76.5t-40 -62t-59.5 -42t-73 -15.5h-73v-1245h73q39 0 73 -15.5t59.5 -42t40 -62.5t14.5 -77t-14.5 -77t-40 -61.5t-59.5 -41t-73 -15.5h-262q-78 0 -132 56.5t-54 138.5z " />
<glyph unicode="\" horiz-adv-x="1216" d="M20 1571q0 37 14.5 72.5t39 63.5t60.5 45t79 17q55 0 103.5 -28.5t74.5 -81.5l762 -1536q20 -43 21 -90q0 -39 -14.5 -75t-40 -63.5t-61.5 -45t-79 -17.5q-55 0 -102.5 29.5t-73.5 83.5l-760 1532q-23 49 -23 94z" />
<glyph unicode="]" horiz-adv-x="798" d="M41 -127q0 41 14.5 77t40 62.5t59 42t72.5 15.5h74v1245h-74q-39 0 -72.5 15.5t-59 42t-40 62t-14.5 76.5t14.5 77t40 62.5t59 42t72.5 15.5h262q78 0 132.5 -57.5t54.5 -139.5v-1638q0 -82 -54.5 -138.5t-132.5 -56.5h-262q-39 0 -72.5 15.5t-59 41t-40 61.5t-14.5 77z " />
<glyph unicode="^" horiz-adv-x="1275" d="M63 1063q0 41 13.5 77t42.5 64l389 391q59 51 135 52q33 0 65.5 -11.5t61.5 -40.5l393 -393q51 -63 51 -137q0 -41 -15 -76t-42 -60.5t-60.5 -41t-70.5 -15.5q-74 0 -129 56q-94 92 -146.5 143t-76.5 76l-35 35l-256 -254q-29 -29 -63.5 -41.5t-67.5 -14.5q-68 0 -129 52 q-31 29 -45.5 64.5t-14.5 74.5z" />
<glyph unicode="_" horiz-adv-x="1189" d="M82 197q0 82 54 138t132 56h652q39 0 73.5 -15.5t60 -41t40 -61t14.5 -76.5t-14.5 -77t-40 -62.5t-60.5 -42t-73 -15.5h-652q-78 0 -132 57.5t-54 139.5z" />
<glyph unicode="`" horiz-adv-x="577" d="M61 1458q0 59 34 109.5t93 70.5h-2q31 10 58 11q57 0 107 -36t73 -95l59 -166q12 -35 13 -68q0 -35 -14.5 -69.5t-39 -61.5t-58.5 -43t-75 -16q-57 0 -108 35.5t-72 95.5l-57 166l2 -2q-13 32 -13 69z" />
<glyph unicode="a" horiz-adv-x="1193" d="M82 410v329q6 98 44 177t98.5 135.5t140 87t170.5 30.5q92 0 174 -32.5t143 -91t97 -137.5t36 -169v-199v-108q0 -35 1 -43l1 -8q78 0 132.5 -56.5t54.5 -138.5t-54.5 -139t-132.5 -57q-121 0 -205 63q-115 -63 -247 -63q-92 0 -175.5 30.5t-144.5 87t-97 133.5t-36 169z " />
<glyph unicode="b" horiz-adv-x="1089" d="M102 412v948q0 82 54.5 139t132.5 57q39 0 73.5 -15t60.5 -41.5t40 -62.5t14 -77v-195q18 2 38 3t38 1q94 0 177 -32.5t144.5 -90t97.5 -136.5t36 -171v-327q-4 -98 -41 -176t-98.5 -132.5t-142.5 -84t-173 -29.5q-94 0 -176 31.5t-143.5 87t-96.5 133.5t-35 170z" />
<glyph unicode="c" horiz-adv-x="1058" d="M82 412v327q4 96 40 176t96.5 136.5t141 87t172.5 30.5q84 0 159 -24.5t133.5 -69.5t99.5 -107.5t57 -138.5q2 -10 2 -18v-16q0 -39 -14.5 -75t-39 -63.5t-59 -44t-75.5 -16.5q-66 0 -118 42t-67 110q-2 16 -27.5 23t-50.5 7t-50 -8t-25 -31v-327q0 -10 9 -16.5 t22.5 -9.5t25.5 -4t18 -1q14 0 45 3t35 17q14 72 67.5 115t119.5 43q39 0 72.5 -15.5t59 -42t40 -62.5t14.5 -74q0 -20 -2 -31q-27 -160 -148.5 -252t-302.5 -92q-94 0 -176 31.5t-143 87t-96 133.5t-35 170z" />
<glyph unicode="d" horiz-adv-x="1234" d="M102 410v331q4 96 41 175t98.5 135.5t141.5 87t172 30.5q20 0 39.5 -1t38.5 -3v197q0 82 54 138t132 56q80 0 133.5 -56t53.5 -138v-408v-275v-170v-88q0 -28 1 -34l1 -6q39 0 72.5 -15.5t59 -42t40 -62.5t14.5 -75q0 -82 -54.5 -139t-131.5 -57q-59 0 -110.5 16.5 t-96.5 44.5q-55 -29 -116.5 -45t-129.5 -16q-94 0 -176 30.5t-142.5 87t-96.5 133.5t-38 169z" />
<glyph unicode="e" horiz-adv-x="1069" d="M82 412v327q4 96 40 175t96.5 136.5t141 88t172.5 30.5q94 -2 177.5 -34.5t144.5 -89t97 -134t36 -172.5v-108q0 -39 -12 -72t-35 -59q20 -29 32.5 -61.5t12.5 -67.5q0 -18 -2 -29q-12 -80 -51 -145.5t-97.5 -111.5t-135 -70.5t-167.5 -24.5q-94 0 -176 31.5t-143 87 t-96 133.5t-35 170z" />
<glyph unicode="f" horiz-adv-x="886" d="M51 965q0 76 47 129t117 63q10 90 50 164t100.5 126t138.5 80.5t166 28.5q78 0 132 -57t54 -139q0 -47 -18.5 -85t-48 -63.5t-69.5 -39t-83 -13.5h-12q80 0 135 -56t55 -138t-54 -139.5t-132 -57.5h-39v-582q0 -82 -54.5 -139t-132.5 -57q-39 0 -73.5 15t-60 42t-40 62.5 t-14.5 76.5v584q-70 8 -117 63.5t-47 131.5z" />
<glyph unicode="g" horiz-adv-x="1282" d="M123 410v331q4 96 41 175t98.5 135.5t141 87t171.5 30.5q68 0 134.5 -18t121.5 -53q102 72 234 71q80 0 133 -57t53 -139t-53 -138.5t-133 -56.5q-25 0 -31 -27.5t-6 -39.5v-672q-4 -96 -41 -174t-98.5 -132.5t-142 -84t-171.5 -29.5q-90 0 -165.5 24.5t-134 70.5 t-96.5 111.5t-50 145.5q-2 8 -2 16v13q0 47 20.5 90t55.5 70q-80 105 -80 250z" />
<glyph unicode="h" horiz-adv-x="1132" d="M123 186v1174q0 41 14.5 77t40 62.5t60 41.5t73.5 15q78 0 132.5 -57t54.5 -139v-195q18 2 37.5 3t39.5 1q94 0 177.5 -32.5t144.5 -90t97 -136.5t36 -171v-553q0 -41 -14.5 -76.5t-40 -62.5t-60 -42t-73.5 -15t-73 15t-59.5 42t-40 62.5t-14.5 76.5v553q0 23 -25.5 31 t-54.5 8t-53 -8t-24 -31v-553q0 -82 -54.5 -139t-132.5 -57q-39 0 -73.5 15t-60 42t-40 62.5t-14.5 76.5z" />
<glyph unicode="i" horiz-adv-x="620" d="M123 186v787q0 94 65 149q-66 59 -65 152v86q0 82 54 139t132 57q39 0 74 -15t60.5 -41.5t40 -62.5t14.5 -77v-86q0 -47 -18.5 -85t-49.5 -67q31 -27 49.5 -65.5t18.5 -83.5v-787q0 -41 -14.5 -76.5t-40 -62.5t-60.5 -42t-74 -15q-78 0 -132 57t-54 139z" />
<glyph unicode="j" horiz-adv-x="679" d="M-82 -184q0 82 54.5 139t131.5 57h20q13 0 26.5 3t22.5 9.5t9 16.5v932q0 94 66 149q-66 59 -66 152v86q0 41 14.5 77t40 62.5t60.5 41.5t74 15q78 0 132 -57t54 -139v-86q0 -47 -18.5 -85t-49.5 -67q31 -27 49.5 -65.5t18.5 -83.5v-932q0 -98 -37 -177t-98.5 -133.5 t-143 -83t-174.5 -28.5q-78 0 -132 57.5t-54 139.5z" />
<glyph unicode="k" horiz-adv-x="1038" d="M123 186v1174q0 41 14.5 77t40 62.5t59 41.5t72.5 15t74 -15t60.5 -41.5t40 -62.5t14.5 -77v-399l135 145l-2 -2q29 33 65.5 48t73.5 15q72 0 129 -53l-2 4q59 -63 59 -147q0 -35 -12 -69t-37 -60q-29 -31 -49 -52.5t-39.5 -42t-40 -43t-49.5 -53.5l217 -366v2 q29 -45 29 -103q0 -37 -14.5 -71.5t-39 -61t-59.5 -43t-76 -16.5q-47 0 -92 24.5t-71 69.5l-125 213v-113q0 -41 -14.5 -76.5t-40 -62.5t-60.5 -42t-74 -15t-72.5 15t-59 42t-40 62.5t-14.5 76.5z" />
<glyph unicode="l" horiz-adv-x="782" d="M123 412v948q0 82 54 139t132 57q39 0 74 -15t60.5 -41.5t40 -62.5t14.5 -77v-948q0 -10 9 -16.5t22.5 -9.5t25.5 -4t18 -1q39 0 74 -15.5t60.5 -41t40 -61.5t14.5 -77t-14.5 -76.5t-40 -62.5t-60.5 -42t-74 -15q-94 0 -176 31.5t-143 87t-96 133.5t-35 170z" />
<glyph unicode="m" horiz-adv-x="1662" d="M123 186v787q0 41 14.5 76.5t40 61.5t60 41t73.5 15q51 0 95 -26q78 29 169 28q72 0 140.5 -20.5t128.5 -56.5q59 37 125.5 57t138.5 20q94 0 177 -32.5t144.5 -90t96.5 -136.5t35 -171v-553q0 -41 -14.5 -76.5t-40 -62.5t-60.5 -42t-74 -15q-78 0 -132 57t-54 139v553 q0 23 -24.5 31t-53.5 8t-53.5 -8t-24.5 -31v-553q0 -41 -14.5 -76.5t-40 -62.5t-60 -42t-73.5 -15t-74 15t-60.5 42t-40 62.5t-14.5 76.5v553q0 23 -24.5 31t-53.5 8q-27 0 -52 -8t-25 -31v-553q0 -82 -54.5 -139t-132.5 -57q-39 0 -73.5 15t-60 42t-40 62.5t-14.5 76.5z " />
<glyph unicode="n" horiz-adv-x="1132" d="M123 186v787q0 41 14.5 76.5t40 61.5t60 41t73.5 15q51 0 95 -26q43 16 83.5 22t85.5 6q94 0 177.5 -32.5t144.5 -90t97 -136.5t36 -171v-553q0 -41 -14.5 -76.5t-40 -62.5t-60 -42t-73.5 -15t-73 15t-59.5 42t-40 62.5t-14.5 76.5v553q0 23 -25.5 31t-54.5 8 q-27 0 -52 -8t-25 -31v-553q0 -82 -54.5 -139t-132.5 -57q-39 0 -73.5 15t-60 42t-40 62.5t-14.5 76.5z" />
<glyph unicode="o" horiz-adv-x="1110" d="M102 412v327q4 96 40 175t96.5 136.5t141.5 88t173 30.5q94 0 177 -32.5t144.5 -90t97.5 -136.5t36 -171v-327q-4 -98 -41 -176t-98.5 -132.5t-142.5 -84t-173 -29.5q-94 0 -176 31.5t-143.5 87t-96.5 133.5t-35 170z" />
<glyph unicode="p" horiz-adv-x="1130" d="M123 -184v1147q0 82 54 138t132 56q41 0 82 -18q82 31 182 30q94 0 177.5 -30.5t144.5 -87t97 -134t36 -169.5v-328q-2 -96 -40 -175t-99.5 -136.5t-143 -88t-172.5 -30.5q-39 0 -75 6v-180q0 -41 -14.5 -77t-40 -62.5t-60.5 -42t-74 -15.5q-78 0 -132 57.5t-54 139.5z " />
<glyph unicode="q" horiz-adv-x="1132" d="M102 420v328q4 96 41 173.5t98.5 132t142.5 84t171 29.5q100 0 186 -30q41 20 80 20t74 -15.5t60.5 -42t40 -62.5t14.5 -76v-1145q0 -41 -14.5 -77t-40 -62.5t-60.5 -42t-74 -15.5t-73.5 15.5t-60 42t-40 62.5t-14.5 77v180q-37 -6 -78 -6q-96 0 -177 32.5t-141.5 91 t-96.5 137.5t-38 169z" />
<glyph unicode="r" horiz-adv-x="755" d="M123 186v787q0 41 14.5 76.5t40 62.5t60 42t73.5 15q51 0 88 -22q31 10 67 16t71 6q39 0 73.5 -15t60 -42t40 -62.5t14.5 -76.5t-14.5 -77t-40 -61.5t-60.5 -41t-73 -15.5q-31 0 -34 -25.5t-3 -37.5v-529q0 -41 -14.5 -76.5t-40 -62.5t-60.5 -42t-74 -15t-73.5 15t-60 42 t-40 62.5t-14.5 76.5z" />
<glyph unicode="s" horiz-adv-x="1026" d="M92 358q0 59 36 109.5t91 71.5q-63 61 -83.5 129.5t-20.5 119.5q0 86 28.5 156t80.5 120t125 77.5t163 27.5q135 0 234.5 -68.5t146.5 -191.5q12 -35 12 -69q0 -49 -24.5 -94.5t-71.5 -71.5q68 -47 96.5 -129t28.5 -158q0 -88 -31 -160.5t-87 -125t-134 -82t-170 -29.5 q-82 0 -151.5 24.5t-124 68.5t-90 106.5t-50.5 138.5q-4 20 -4 30z" />
<glyph unicode="t" horiz-adv-x="884" d="M51 965q0 74 46 128t116 64v203q0 41 14.5 77t40 62.5t60 41.5t73.5 15t74 -15t60.5 -41.5t40 -62.5t14.5 -77v-203q70 -8 117 -62.5t47 -129.5q0 -76 -47.5 -131.5t-116.5 -63.5v-358q0 -10 9 -16.5t21.5 -9.5t25.5 -4t20 -1q39 0 73.5 -15.5t60 -41t40 -61.5t14.5 -77 t-14.5 -76.5t-40 -62.5t-60 -42t-73.5 -15q-98 0 -181.5 31.5t-143.5 88t-94 133t-34 169.5v358q-70 8 -116 63.5t-46 131.5z" />
<glyph unicode="u" horiz-adv-x="1112" d="M102 412v561q0 41 14.5 76.5t40 62.5t60.5 42t74 15q78 0 132 -57t54 -139v-561q0 -10 9.5 -16.5t22.5 -9.5t26.5 -4t19.5 -1t19.5 1t26.5 4t22.5 9t9.5 17v561q0 41 14.5 76.5t40 62.5t60 42t73.5 15t74 -15t60.5 -42t40 -62.5t14.5 -76.5v-561q-2 -96 -40 -174 t-100.5 -133.5t-143.5 -85t-171 -29.5q-94 0 -176 30.5t-143.5 87t-97.5 134.5t-36 170z" />
<glyph unicode="v" horiz-adv-x="1030" d="M61 977q0 61 34 110.5t93 69.5q25 8 58 8q59 0 109.5 -35.5t70.5 -95.5v2l88 -264l88 264v-2q20 59 70.5 95t109.5 36q82 0 133.5 -56t51.5 -132q0 -39 -11 -68l2 2q-68 -199 -134 -395.5t-132 -394.5q-20 -59 -70.5 -95t-107.5 -36q-59 0 -107.5 35.5t-70.5 95.5 l-264 790l2 -2q-13 33 -13 68z" />
<glyph unicode="w" horiz-adv-x="1574" d="M61 977q0 37 13.5 71.5t38 61.5t58.5 42t75 15q59 0 109.5 -36.5t72.5 -96.5l90 -266l92 264q23 59 71 98t107 39t106.5 -37.5t70.5 -99.5l90 -264l92 270q20 59 70.5 94t109.5 35q39 0 73 -15t58.5 -42t38.5 -61.5t14 -71.5q0 -39 -10 -68l-268 -788q-20 -59 -69.5 -95 t-108.5 -36q-57 0 -106.5 35.5t-69.5 95.5q-33 92 -50.5 145t-27.5 82q-10 35 -17 47l2 -4q-23 -63 -42 -124.5t-48 -145.5q-20 -59 -70.5 -95t-107.5 -36q-59 0 -107.5 35.5t-70.5 95.5l-266 788q-13 33 -13 68z" />
<glyph unicode="x" horiz-adv-x="1042" d="M61 190q0 61 37 109l52 77q23 34 44 65.5t44 65.5l51 77l-189 280q-33 47 -32 109q0 47 21.5 91t62.5 73l-2 -2q49 31 104 30q49 0 89 -26.5t73 -63.5t58.5 -79t45.5 -72l111 159q29 41 70.5 61.5t86.5 20.5q43 0 77 -17.5t58.5 -45t37 -62t12.5 -69.5q0 -59 -35 -113 l-186 -274l192 -287q18 -27 26.5 -56.5t8.5 -60.5q0 -35 -12.5 -67.5t-36 -60t-57 -44t-76.5 -16.5t-87 20.5t-73 61.5l-117 172q-29 -43 -58.5 -85t-58.5 -85q-29 -41 -70.5 -63.5t-86.5 -22.5q-57 0 -103 33l2 -3q-41 31 -62.5 77t-21.5 93z" />
<glyph unicode="y" horiz-adv-x="1148" d="M123 410v563q0 41 15.5 76.5t41 62.5t59 42t70.5 15q39 0 74 -15t60.5 -42t40 -62.5t14.5 -76.5v-561q0 -10 9 -16.5t22.5 -9.5t26.5 -4t19 -1t19.5 1t26 4t22.5 9t10 17v561q0 41 15.5 76.5t41 62.5t59.5 42t71 15q78 0 132 -57t54 -139v-934q-4 -96 -41 -174 t-97.5 -132.5t-141 -84t-171.5 -29.5q-180 0 -299.5 95.5t-146.5 256.5q-2 8 -2 17v16q0 47 20.5 88t55.5 68q-80 105 -80 250z" />
<glyph unicode="z" horiz-adv-x="1054" d="M72 965q0 82 54 138t132 56h533q41 0 74.5 -17.5t58 -45t38 -64.5t13.5 -74q0 -29 -8.5 -56.5t-24.5 -51.5q-59 -86 -104 -151.5t-78 -113.5t-55.5 -82t-36.5 -54q-35 -51 -41 -58h170q39 0 72.5 -15.5t59 -41t40 -61t14.5 -76.5t-14.5 -77t-40 -62.5t-59 -42 t-72.5 -15.5h-531q-41 2 -74.5 20.5t-58 46t-38 62.5t-13.5 72q0 59 33 110q115 170 178 263.5t92 136.5l39 57h-166q-39 0 -72.5 15.5t-59.5 43t-40 62.5t-14 76z" />
<glyph unicode="{" horiz-adv-x="1019" d="M51 723q0 41 14.5 77t40 62.5t60.5 42t74 15.5q16 0 24 10t8 57v258q6 109 48 194t109 144t155 91t186 32q39 0 74 -15.5t60.5 -42t39.5 -62.5t14 -77t-14 -76.5t-39.5 -61t-60.5 -41t-74 -15.5q-45 0 -84 -15.5t-39 -54.5v-258q0 -86 -11 -148.5t-40 -115.5 q51 -100 51 -264v-322q0 -37 39 -52t84 -15q39 0 74 -15.5t60.5 -42t39.5 -62.5t14 -77t-14 -77t-39.5 -61.5t-60.5 -41t-74 -15.5q-104 0 -193.5 34t-157 94.5t-106.5 144.5t-41 186v322q0 47 -8 58t-24 11q-39 0 -74 15.5t-60.5 41t-40 61.5t-14.5 77z" />
<glyph unicode="|" horiz-adv-x="681" d="M154 35v1474q0 41 14 77t39.5 62.5t60.5 42t74 15.5q78 0 132 -57.5t54 -139.5v-1474q0 -82 -54 -139.5t-132 -57.5q-39 0 -74 15.5t-60.5 42t-39.5 62.5t-14 77z" />
<glyph unicode="}" horiz-adv-x="1019" d="M61 -125q0 41 14.5 77t40 62.5t60.5 42t74 15.5q45 0 84 14t39 53v258q0 86 11 148.5t40 116.5q-51 100 -51 264v321q0 39 -39 53.5t-84 14.5q-39 0 -74 15.5t-60.5 42t-40 62t-14.5 76.5t14.5 77t40 62.5t60.5 42t74 15.5q104 0 194.5 -34t157 -94t105 -145t41.5 -188 v-321q0 -47 8 -58.5t24 -11.5q39 0 74 -15.5t60.5 -41t40 -61.5t14.5 -76q0 -41 -14.5 -77t-40 -62.5t-60.5 -42t-74 -15.5q-16 0 -24 -10.5t-8 -57.5v-258q-6 -109 -48.5 -193.5t-110 -144t-154.5 -91.5t-185 -32q-39 0 -74 15.5t-60.5 42t-40 62.5t-14.5 77z" />
<glyph unicode="~" horiz-adv-x="964" d="M92 709q0 55 26.5 99t68.5 75.5t92.5 49t99.5 17.5q12 0 26.5 -1t36 -6t52 -14t77.5 -26q47 41 113 41q41 0 76 -16.5t59.5 -43t38.5 -62.5t14 -72q0 -55 -26.5 -99.5t-68.5 -77t-93 -50t-100 -17.5q-12 0 -25.5 1t-35 6t-52.5 15.5t-78 26.5q-49 -41 -114 -41 q-41 0 -75 16.5t-58.5 43t-39 61.5t-14.5 74z" />
<glyph unicode="&#xa1;" horiz-adv-x="677" d="M143 1120q0 33 9.5 62.5t25.5 56.5q-16 23 -25.5 52.5t-9.5 64.5v90q0 43 15.5 80t41 64.5t61.5 43t77 15.5t77 -15.5t61.5 -43t40.5 -64.5t15 -80v-90q0 -35 -9 -64.5t-25 -52.5q16 -27 25 -56.5t9 -62.5l3 -927q0 -43 -15.5 -80t-41 -65t-61.5 -43t-77 -15t-77 15 t-61.5 43t-41 65t-15.5 80z" />
<glyph unicode="&#xa2;" horiz-adv-x="1091" d="M82 412v340q6 145 77.5 250.5t196.5 158.5v39q0 43 15.5 80t41 64.5t61.5 43t77 15.5t77 -15.5t61.5 -43t40.5 -64.5t15 -80v-39q135 -59 205 -168.5t70 -240.5q0 -53 -22.5 -97.5t-63.5 -72.5q41 -27 63.5 -72t22.5 -98q0 -143 -76 -248t-199 -156v-14q0 -43 -15 -80 t-40.5 -64.5t-61.5 -43t-77 -15.5t-77 15.5t-61.5 43t-41 64.5t-15.5 80v14q-129 51 -201.5 160t-72.5 244zM469 412q0 -10 10 -16.5t23.5 -9.5t27.5 -3h21h20q14 0 27.5 3t24 9t10.5 17q0 53 22.5 98t63.5 72q-39 29 -62.5 72.5t-23.5 97.5q0 23 -26.5 32t-55.5 9 t-55.5 -9.5t-26.5 -31.5v-340z" />
<glyph unicode="&#xa3;" horiz-adv-x="1427" d="M113 203q0 43 15 79.5t41 64.5t61.5 43.5t76.5 15.5q27 0 33 11t6 19v96h-39q-41 0 -76.5 15.5t-61.5 43t-41 64.5t-15 80t15 80t41 64.5t61.5 43t76.5 15.5h39v248q2 98 37 183t95.5 147.5t143.5 97.5t179 35q86 0 168 -33t145.5 -88t101 -130t37.5 -159q0 -41 -14 -78 t-38.5 -64.5t-58.5 -45t-75 -17.5q-72 0 -128 49.5t-71 124.5q-4 10 -18 22.5t-49 12.5q-23 0 -36 -7t-20.5 -16.5t-9.5 -19.5t-2 -14v-248h182q84 0 138.5 -58.5t54.5 -144.5t-54.5 -144.5t-138.5 -58.5h-182v-126h428q41 0 77 -15.5t61.5 -43.5t41 -64.5t15.5 -79.5 t-15.5 -80t-41 -64.5t-61.5 -43t-77 -15.5h-854q-41 0 -76.5 15.5t-61.5 43t-41 64.5t-15 80z" />
<glyph unicode="&#xa5;" horiz-adv-x="1234" d="M94 1448q0 37 13.5 74t38 64.5t60.5 45t79 17.5q51 0 98 -28t76 -75l159 -289q41 72 79 145t79 144q27 47 75 75t101 28q43 0 78 -17.5t59.5 -46.5t38 -64.5t13.5 -74.5q0 -53 -27 -98l2 2q-47 -90 -87 -162t-71 -131q74 -6 125.5 -63.5t51.5 -137.5q0 -70 -37 -119 q37 -49 37 -119q0 -43 -15.5 -79.5t-41 -64.5t-61.5 -43t-77 -15h-127v-226q0 -43 -15.5 -79.5t-42 -64.5t-62.5 -43t-75 -15q-41 0 -76.5 15t-61 43t-41 64.5t-15.5 79.5v226h-129q-41 0 -76 15t-61.5 43t-42 64.5t-15.5 79.5q0 66 37 119q-37 53 -37 119q0 80 51.5 137.5 t124.5 63.5l-157 293q-25 45 -25 98z" />
<glyph unicode="&#xa6;" horiz-adv-x="634" d="M123 193v143q0 43 15.5 80t41 64.5t61 43t76.5 15.5t77 -15.5t61.5 -43t41 -64.5t15.5 -80v-143q0 -43 -15.5 -80t-41 -65t-61.5 -43t-77 -15t-76.5 15t-61 43t-41 65t-15.5 80zM123 866v144q0 43 15.5 79.5t41 64.5t61 44t76.5 16t77 -16t61.5 -44t41 -64.5t15.5 -79.5 v-144q0 -43 -15.5 -79.5t-41 -64.5t-61.5 -43t-77 -15t-76.5 15t-61 43t-41 64.5t-15.5 79.5z" />
<glyph unicode="&#xa7;" horiz-adv-x="1122" d="M113 733q0 92 22.5 157.5t61.5 117.5q-25 41 -38.5 89t-13.5 107q0 92 36 168t95.5 129t137.5 83t161 30q143 0 250 -72t154 -194q14 -37 14 -76t-14 -75t-39 -63.5t-59.5 -44t-77.5 -16.5q-23 0 -47 6q55 -33 101 -70.5t80 -84.5t53.5 -106.5t19.5 -135.5 q0 -92 -23.5 -157.5t-60.5 -116.5q23 -41 37 -90.5t14 -108.5q0 -92 -36 -168t-95.5 -129t-137 -83t-161.5 -30q-145 0 -254 73t-152 200v-4q-14 35 -14 75q0 37 14.5 73t39 63.5t59 45t75.5 17.5q25 0 47 -6q-53 33 -99 70.5t-79.5 85t-52 106.5t-18.5 135z" />
<glyph unicode="&#xa8;" horiz-adv-x="825" d="M61 1356v92q0 43 15.5 80t42 64.5t61.5 43t76 15.5q47 0 87 -21.5t69 -60.5q29 39 68.5 60.5t88.5 21.5q39 0 75 -15.5t62.5 -43t42 -64.5t15.5 -80v-92q0 -43 -15.5 -80t-42 -64.5t-62.5 -43t-75 -15.5q-49 0 -89 22.5t-68 59.5q-29 -37 -69 -59.5t-87 -22.5 q-41 0 -76 15.5t-61.5 43t-42 64.5t-15.5 80z" />
<glyph unicode="&#xa9;" horiz-adv-x="1845" d="M92 819q0 170 65.5 320.5t178.5 264.5t263.5 180.5t320.5 66.5t320.5 -66.5t262 -180.5t177 -264.5t65.5 -320.5t-65.5 -320.5t-177 -264t-262 -180t-320.5 -66.5t-320.5 66.5t-263.5 180t-178.5 264t-65.5 320.5zM281 819q0 -131 51 -247.5t138 -204.5t202.5 -139.5 t247.5 -51.5q131 0 246.5 51.5t202.5 139.5t137 204.5t50 247.5t-50 248t-137 205t-202.5 139t-246.5 51t-247 -51t-203 -139t-138 -205t-51 -248zM600 598v467q0 63 23.5 116.5t65.5 91.5t101.5 59.5t131.5 21.5t131 -21.5t101 -59.5t65.5 -91.5t23.5 -116.5 q0 -39 -26.5 -66.5t-67.5 -27.5q-39 0 -66.5 27.5t-27.5 66.5q0 33 -15.5 53.5t-36 29.5t-44 12t-37.5 3q-16 0 -39 -3t-43.5 -12t-36 -29.5t-15.5 -53.5v-467q0 -33 15.5 -52.5t36 -29.5t43 -13t39.5 -3q14 0 37.5 3t44 13t36 29.5t15.5 52.5q0 41 27.5 67.5t66.5 26.5 q41 0 67.5 -26.5t26.5 -67.5q0 -63 -23.5 -115.5t-65.5 -90.5t-101.5 -59.5t-130.5 -21.5q-72 0 -131.5 21.5t-101.5 59.5t-65.5 90.5t-23.5 115.5z" />
<glyph unicode="&#xaa;" horiz-adv-x="1193" d="M82 410v329q6 98 44 177t98.5 135.5t140 87t170.5 30.5q92 0 174 -32.5t143 -91t97 -137.5t36 -169v-199v-108q0 -35 1 -43l1 -8q78 0 132.5 -56.5t54.5 -138.5t-54.5 -139t-132.5 -57q-121 0 -205 63q-115 -63 -247 -63q-92 0 -175.5 30.5t-144.5 87t-97 133.5t-36 169z " />
<glyph unicode="&#xab;" horiz-adv-x="1171" d="M74 674q0 76 51 133l303 305q29 29 62.5 40t66.5 13q53 0 100.5 -28.5t71.5 -75.5l51 51q29 29 63 40t68 13q37 0 71 -14t59.5 -39t42 -60.5t16.5 -78.5q0 -39 -13.5 -75t-39.5 -62l-166 -166l166 -164q53 -59 53 -137q0 -45 -16.5 -81t-43 -61.5t-60.5 -39t-71 -13.5 q-35 0 -67.5 13.5t-61.5 41.5l-51 52q-25 -51 -71 -78t-99 -27q-35 0 -68.5 12.5t-62.5 40.5l-303 306q-51 63 -51 139z" />
<glyph unicode="&#xac;" horiz-adv-x="989" d="M61 758q0 41 14.5 76.5t40 61.5t60.5 41t74 15h489q39 0 74 -15t60.5 -41t40 -61.5t14.5 -76.5v-193q0 -41 -14.5 -76.5t-40 -61.5t-60.5 -41t-74 -15q-78 0 -132 55t-54 137h-303q-39 0 -74 15.5t-60.5 41t-40 61.5t-14.5 77z" />
<glyph unicode="&#xad;" horiz-adv-x="974" d="M82 784q0 43 15.5 80t41 64.5t61.5 43t76 15.5h422q41 0 77 -15.5t61.5 -43t41 -64.5t15.5 -80t-15.5 -79.5t-41 -64.5t-61.5 -44t-77 -16h-422q-41 0 -76.5 16t-61 44t-41 64.5t-15.5 79.5z" />
<glyph unicode="&#xae;" horiz-adv-x="1851" d="M92 819q0 170 65.5 320.5t178.5 264.5t263.5 180.5t320.5 66.5t320.5 -66.5t262 -180.5t177 -264.5t65.5 -320.5t-65.5 -320.5t-177 -264t-262 -180t-320.5 -66.5t-320.5 66.5t-263.5 180t-178.5 264t-65.5 320.5zM281 819q0 -131 51 -247.5t138 -204.5t202.5 -139.5 t247.5 -51.5q131 0 246.5 51.5t202.5 139.5t137 204.5t50 247.5t-50 248t-137 205t-202.5 139t-246.5 51t-247 -51t-203 -139t-138 -205t-51 -248zM645 399v846q0 39 27.5 66.5t66.5 27.5h230q61 0 113.5 -23.5t90 -64.5t58 -99t20.5 -128q0 -98 -40 -173t-109 -112 l141 -299q4 -10 6 -19t2 -20q0 -37 -26.5 -66.5t-69.5 -29.5q-57 0 -84 55q-47 100 -77.5 166t-49.5 107q-23 47 -35 74h-75v-308q0 -39 -27 -66.5t-68 -27.5q-39 0 -66.5 27.5t-27.5 66.5zM834 895h135q31 0 50 14.5t28.5 35t12.5 43t3 36.5t-3 35.5t-12.5 42t-29 35 t-49.5 14.5h-135v-256z" />
<glyph unicode="&#xaf;" horiz-adv-x="1067" d="M61 1442q0 41 14.5 76.5t40 62.5t60.5 42t74 15h569q78 0 132.5 -57t54.5 -139t-54.5 -138.5t-132.5 -56.5h-569q-39 0 -74 15.5t-60.5 41t-40 61.5t-14.5 77z" />
<glyph unicode="&#xb0;" horiz-adv-x="823" d="M31 1257q0 82 29.5 153t81 124t120 84t148.5 31t149.5 -31t121.5 -84t82 -124t30 -153q0 -80 -30 -150.5t-82 -122.5t-122 -83t-149 -31q-80 0 -148.5 31t-120 83t-81 122.5t-29.5 150.5z" />
<glyph unicode="&#xb1;" horiz-adv-x="1081" d="M92 197q0 82 54.5 138t132.5 56h81q-8 25 -8 64v63h-73q-78 0 -132.5 57.5t-54.5 139.5t54.5 138t132.5 56h73v64q0 82 54.5 139t132.5 57q39 0 73.5 -15t60 -42t40 -62.5t14.5 -76.5v-64h74q39 0 73.5 -15t60.5 -41t40 -61.5t14 -76.5t-14 -77t-40 -62.5t-60.5 -42 t-73.5 -15.5h-74v-63q0 -33 -10 -64h86q78 0 132 -56t54 -138t-54 -139.5t-132 -57.5h-524q-78 0 -132.5 57.5t-54.5 139.5z" />
<glyph unicode="&#xb2;" horiz-adv-x="1241" d="M104 205q0 27 7.5 57.5t25.5 54.5q160 223 270.5 385t179 268.5t100.5 161t32 64.5q0 16 -12.5 25.5t-30 14.5t-34.5 6t-28 1q-8 0 -23.5 -1t-31.5 -4t-28.5 -10t-14.5 -20q-16 -70 -71.5 -113.5t-122.5 -43.5q-41 0 -77 16t-61.5 44t-40 64.5t-14.5 75.5q0 23 6 47 q23 86 69 150.5t109.5 110t140 68t160.5 22.5q106 0 196.5 -34t157 -94.5t103.5 -143.5t37 -181q0 -78 -27.5 -152.5t-81 -166t-132.5 -205t-181 -266.5h279q41 0 76.5 -15.5t61 -43.5t41 -64.5t15.5 -79.5t-15.5 -80t-41 -64.5t-61 -43t-76.5 -15.5h-668q-90 6 -141.5 66.5 t-51.5 138.5z" />
<glyph unicode="&#xb3;" horiz-adv-x="1212" d="M82 389q0 37 12 73t37 64.5t60.5 46t82.5 17.5q59 0 111.5 -35t75.5 -96q23 -63 119 -64q63 0 97 32t34 91q0 70 -35 100.5t-96 30.5q-37 0 -72 15.5t-62.5 42t-44 63.5t-16.5 82q0 43 15.5 80t42 64.5t61.5 43t76 15.5q29 0 45 12t24 28.5t10.5 33t2.5 22.5t-2.5 21.5 t-10.5 31t-24.5 27.5t-44.5 12q-66 0 -76 -41q-18 -70 -73.5 -110.5t-121.5 -40.5q-41 0 -74.5 17t-58 46t-39 66t-14.5 77q0 25 6 54q20 80 64.5 142.5t103.5 105.5t131 66.5t150 23.5q106 0 193 -39t149.5 -105.5t96.5 -152.5t34 -181q0 -72 -16.5 -156.5t-49.5 -142.5 q55 -72 85 -164t30 -190q0 -115 -40 -211t-109.5 -166.5t-164 -110.5t-204.5 -40q-84 0 -161 22.5t-141.5 65.5t-111.5 103.5t-74 135.5q-12 33 -12 72z" />
<glyph unicode="&#xb4;" horiz-adv-x="847" d="M63 1350q0 63 37 117.5t103 74.5l332 100q25 8 55 9q35 0 69.5 -14.5t62.5 -40t45 -61.5t17 -79q0 -66 -37.5 -122t-101.5 -79q-78 -29 -165 -52t-165 -50q-25 -6 -49 -6q-39 0 -74.5 15.5t-64.5 42t-46.5 63.5t-17.5 82z" />
<glyph unicode="&#xb6;" horiz-adv-x="1089" d="M92 1290q0 74 26.5 137.5t74 110.5t108.5 74.5t133 27.5h338q82 0 138.5 -57t56.5 -143v-1403q0 -43 -15.5 -81t-41 -65.5t-61.5 -43t-77 -15.5q-70 0 -123 47q-25 -23 -56.5 -35t-66.5 -12q-41 0 -75.5 15.5t-61.5 43t-42 65.5t-15 81v917q-104 33 -172 124t-68 212z " />
<glyph unicode="&#xb7;" horiz-adv-x="659" d="M72 629q0 55 20.5 103t55 85t81.5 57.5t101 20.5q53 0 100 -20.5t82 -57.5t55.5 -85t20.5 -103t-20.5 -103.5t-55.5 -84t-82 -56t-100 -20.5t-100.5 20.5t-82 56t-55 84t-20.5 103.5z" />
<glyph unicode="&#xb8;" horiz-adv-x="704" d="M61 -80q0 61 34 107.5t87 62.5v131q0 76 49.5 127t120.5 51q72 0 121 -51t49 -127v-57q53 -41 87 -103.5t34 -140.5q0 -61 -22.5 -115.5t-62.5 -96.5t-92 -65.5t-114 -23.5q-61 0 -113.5 23.5t-92.5 65.5t-62.5 96.5t-22.5 115.5z" />
<glyph unicode="&#xb9;" horiz-adv-x="931" d="M61 1124q0 43 15.5 80t42 64.5t61.5 43t76 15.5q45 0 62.5 38t17.5 81q0 86 55 144.5t139 58.5q39 0 75 -15.5t62.5 -43t42 -64.5t15.5 -80v-1067q0 -143 2 -176q0 -43 -15.5 -82t-42 -68.5t-62.5 -46t-75 -16.5q-41 0 -76.5 15t-62 43t-42 65t-15.5 80v735 q-20 -4 -38.5 -5t-41.5 -1q-41 0 -76 15t-61.5 43t-42 64.5t-15.5 79.5z" />
<glyph unicode="&#xba;" horiz-adv-x="1110" d="M102 412v327q4 96 40 175t96.5 136.5t141.5 88t173 30.5q94 0 177 -32.5t144.5 -90t97.5 -136.5t36 -171v-327q-4 -98 -41 -176t-98.5 -132.5t-142.5 -84t-173 -29.5q-94 0 -176 31.5t-143.5 87t-96.5 133.5t-35 170z" />
<glyph unicode="&#xbb;" horiz-adv-x="1169" d="M72 369q0 41 14 74.5t39 62.5q63 63 97 96t50 49q18 18 19 21l-166 164q-53 59 -53 137q0 45 16 81t43 60.5t60.5 37.5t70.5 13q35 0 67.5 -12t61.5 -41l51 -51q25 49 72 75.5t100 26.5q35 0 69 -12t60 -39l304 -305q51 -61 51 -137q0 -37 -12.5 -73t-38.5 -62l-302 -302 q-31 -31 -64.5 -44t-68.5 -13q-53 0 -99 28.5t-71 76.5l-47 -48q-29 -29 -64.5 -42t-70.5 -13q-74 0 -131 52.5t-57 138.5z" />
<glyph unicode="&#xbc;" horiz-adv-x="3315" d="M2189 451q0 47 25 94l524 997q27 51 74 79t100 28q41 0 75.5 -16.5t60.5 -44t40 -64.5t14 -78v-811q53 -27 87 -82t34 -115q0 -70 -33.5 -116t-87.5 -64v-65q0 -43 -15 -80t-41 -65t-61.5 -43t-76.5 -15t-76 15t-61.5 43t-42 65t-15.5 80v53h-329q-43 0 -79 17.5 t-61.5 46t-40 65.5t-14.5 76zM973 33q0 45 22 94l760 1532q27 53 74 83t102 27q43 0 79 -16t61.5 -44t40 -63.5t14.5 -74.5q0 -49 -20 -90l-762 -1536q-27 -53 -75 -82t-104 -29q-43 0 -78.5 17.5t-60 45t-39 63.5t-14.5 73zM61 1124q0 43 15.5 80t42 64.5t61.5 43t76 15.5 q45 0 62.5 38t17.5 81q0 86 55 144.5t139 58.5q39 0 75 -15.5t62.5 -43t42 -64.5t15.5 -80v-1067q0 -143 2 -176q0 -43 -15.5 -82t-42 -68.5t-62.5 -46t-75 -16.5q-41 0 -76.5 15t-62 43t-42 65t-15.5 80v735q-20 -4 -38.5 -5t-41.5 -1q-41 0 -76 15t-61.5 43t-42 64.5 t-15.5 79.5z" />
<glyph unicode="&#xbd;" horiz-adv-x="3389" d="M2252 205q0 27 7.5 57.5t25.5 54.5q160 223 270.5 385t179 268.5t100.5 161t32 64.5q0 16 -12.5 25.5t-30 14.5t-34.5 6t-28 1q-8 0 -23.5 -1t-31.5 -4t-28.5 -10t-14.5 -20q-16 -70 -71.5 -113.5t-122.5 -43.5q-41 0 -77 16t-61.5 44t-40 64.5t-14.5 75.5q0 23 6 47 q23 86 69 150.5t109.5 110t140 68t160.5 22.5q106 0 196.5 -34t157 -94.5t103.5 -143.5t37 -181q0 -78 -27.5 -152.5t-81 -166t-132.5 -205t-181 -266.5h279q41 0 76.5 -15.5t61 -43.5t41 -64.5t15.5 -79.5t-15.5 -80t-41 -64.5t-61 -43t-76.5 -15.5h-668q-90 6 -141.5 66.5 t-51.5 138.5zM973 33q0 45 22 94l760 1532q27 53 74 83t102 27q43 0 79 -16t61.5 -44t40 -63.5t14.5 -74.5q0 -49 -20 -90l-762 -1536q-27 -53 -75 -82t-104 -29q-43 0 -78.5 17.5t-60 45t-39 63.5t-14.5 73zM61 1124q0 43 15.5 80t42 64.5t61.5 43t76 15.5q45 0 62.5 38 t17.5 81q0 86 55 144.5t139 58.5q39 0 75 -15.5t62.5 -43t42 -64.5t15.5 -80v-1067q0 -143 2 -176q0 -43 -15.5 -82t-42 -68.5t-62.5 -46t-75 -16.5q-41 0 -76.5 15t-62 43t-42 65t-15.5 80v735q-20 -4 -38.5 -5t-41.5 -1q-41 0 -76 15t-61.5 43t-42 64.5t-15.5 79.5z" />
<glyph unicode="&#xbe;" horiz-adv-x="3596" d="M2470 451q0 47 25 94l524 997q27 51 74 79t100 28q41 0 75.5 -16.5t60.5 -44t40 -64.5t14 -78v-811q53 -27 87 -82t34 -115q0 -70 -33.5 -116t-87.5 -64v-65q0 -43 -15 -80t-41 -65t-61.5 -43t-76.5 -15t-76 15t-61.5 43t-42 65t-15.5 80v53h-329q-43 0 -79 17.5 t-61.5 46t-40 65.5t-14.5 76zM1253 33q0 45 22 94l760 1532q27 53 74 83t102 27q43 0 79 -16t61.5 -44t40 -63.5t14.5 -74.5q0 -49 -20 -90l-762 -1536q-27 -53 -75 -82t-104 -29q-43 0 -78.5 17.5t-60 45t-39 63.5t-14.5 73zM82 389q0 37 12 73t37 64.5t60.5 46t82.5 17.5 q59 0 111.5 -35t75.5 -96q23 -63 119 -64q63 0 97 32t34 91q0 70 -35 100.5t-96 30.5q-37 0 -72 15.5t-62.5 42t-44 63.5t-16.5 82q0 43 15.5 80t42 64.5t61.5 43t76 15.5q29 0 45 12t24 28.5t10.5 33t2.5 22.5t-2.5 21.5t-10.5 31t-24.5 27.5t-44.5 12q-66 0 -76 -41 q-18 -70 -73.5 -110.5t-121.5 -40.5q-41 0 -74.5 17t-58 46t-39 66t-14.5 77q0 25 6 54q20 80 64.5 142.5t103.5 105.5t131 66.5t150 23.5q106 0 193 -39t149.5 -105.5t96.5 -152.5t34 -181q0 -72 -16.5 -156.5t-49.5 -142.5q55 -72 85 -164t30 -190q0 -115 -40 -211 t-109.5 -166.5t-164 -110.5t-204.5 -40q-84 0 -161 22.5t-141.5 65.5t-111.5 103.5t-74 135.5q-12 33 -12 72z" />
<glyph unicode="&#xbf;" horiz-adv-x="1200" d="M113 442v41q6 104 40.5 179t78.5 126.5t91.5 84t82.5 55.5l-3 -2q20 16 25.5 31.5t5.5 48.5v36v72q0 35 8.5 65.5t28.5 59.5q-16 23 -26.5 52.5t-10.5 64.5v90q0 43 15.5 80t42 64.5t61.5 43t76 15.5t76.5 -15.5t61.5 -43t41 -64.5t15 -80v-90q0 -70 -37 -119 q16 -25 24.5 -54.5t10.5 -62.5l2 -73v-48q0 -59 -6 -114.5t-31.5 -110.5t-77 -109.5t-139.5 -111.5l2 2q-33 -23 -51 -43t-18 -55q0 -33 41 -47.5t86 -14.5q47 0 89 16.5t42 55.5q0 43 15.5 80t41 64.5t61 43t76.5 15.5q39 0 75 -15.5t62.5 -43t42 -64.5t15.5 -80 q0 -104 -40 -192.5t-110.5 -151t-165 -98t-204.5 -35.5q-104 0 -196.5 31.5t-161 91t-110.5 142.5t-48 187z" />
<glyph unicode="&#xc0;" horiz-adv-x="1341" d="M31 195q0 35 12 69l444 1243q6 18 17.5 35t23.5 31l-59 18q-66 20 -103.5 75.5t-37.5 121.5q0 45 17 84t46 65.5t66 42t75 15.5q25 0 50 -6l340 -105q63 -23 101 -80t38 -125q0 -45 -17.5 -81.5t-46 -63.5t-63.5 -41t-70 -14l432 -1213q12 -37 13 -73q0 -41 -14.5 -77 t-40 -63.5t-62.5 -44t-80 -16.5q-61 0 -111.5 37t-74.5 98q-8 23 -17 47q-8 23 -19 52.5t-24 68.5h-389q-14 -39 -23.5 -68.5t-17.5 -52.5q-8 -25 -16 -45q-25 -61 -80 -99t-117 -38q-43 0 -78.5 17.5t-60.5 46t-39 65.5t-14 74z" />
<glyph unicode="&#xc1;" horiz-adv-x="1341" d="M31 195q0 35 12 69l436 1217q-39 0 -76.5 14t-67.5 42t-48.5 65.5t-18.5 87.5q0 66 38 121t104 75l335 103q25 8 54 8q37 0 73.5 -14.5t65.5 -41t46 -64.5t17 -83q0 -90 -53 -140t-139 -79q16 -16 28.5 -35.5t20.5 -42.5l438 -1231q12 -37 13 -73q0 -63 -36 -118 t-102 -73l5 2q-35 -12 -64 -12q-61 0 -111.5 37t-74.5 98q-8 23 -17 47q-8 23 -19 52.5t-24 68.5h-389q-14 -39 -23.5 -68.5t-17.5 -52.5q-8 -25 -16 -45q-25 -61 -80 -99t-117 -38q-43 0 -78.5 17.5t-60.5 46t-39 65.5t-14 74z" />
<glyph unicode="&#xc2;" horiz-adv-x="1341" d="M31 195q0 35 12 69l436 1217h-12q-37 0 -74 14t-66.5 41t-47 63.5t-17.5 83.5q0 51 23.5 98.5t66.5 78.5l207 135h-2q47 33 109 33q61 0 112 -33l209 -137l-2 2q43 -29 65.5 -76t22.5 -98q0 -63 -33 -115l2 2q-31 -49 -79 -70.5t-101 -21.5l434 -1215q12 -37 13 -73 q0 -63 -36 -118t-102 -73l5 2q-35 -12 -64 -12q-61 0 -111.5 37t-74.5 98q-8 23 -17 47q-8 23 -19 52.5t-24 68.5h-389q-14 -39 -23.5 -68.5t-17.5 -52.5q-8 -25 -16 -45q-25 -61 -80 -99t-117 -38q-43 0 -78.5 17.5t-60.5 46t-39 65.5t-14 74z" />
<glyph unicode="&#xc3;" horiz-adv-x="1341" d="M31 195q0 35 12 69l438 1225q-10 -2 -28 -2q-43 0 -80 16.5t-62.5 45t-41 66.5t-15.5 79q0 72 23.5 121t64.5 78.5t96.5 43t118.5 13.5q27 0 67 -8.5t136 -40.5q55 43 121 43q39 0 75.5 -16.5t64.5 -44.5t44 -65.5t16 -78.5q0 -47 -19.5 -87t-51 -72t-71.5 -54.5 t-81 -32.5l438 -1227q12 -37 13 -73q0 -63 -36 -118t-102 -73l5 2q-35 -12 -64 -12q-61 0 -111.5 37t-74.5 98q-8 23 -17 47q-8 23 -19 52.5t-24 68.5h-389q-14 -39 -23.5 -68.5t-17.5 -52.5q-8 -25 -16 -45q-25 -61 -80 -99t-117 -38q-43 0 -78.5 17.5t-60.5 46t-39 65.5 t-14 74z" />
<glyph unicode="&#xc4;" horiz-adv-x="1341" d="M31 195q0 35 12 69l444 1241q-88 0 -146 60.5t-58 148.5v94q0 43 15 81t42 65.5t63.5 44t77.5 16.5q63 0 112.5 -36.5t72.5 -96.5q23 59 71.5 96t114.5 37q41 0 78 -16.5t63.5 -44t42 -65.5t15.5 -81v-94q0 -88 -56.5 -148.5t-140.5 -60.5l442 -1239q12 -37 13 -73 q0 -63 -36 -118t-102 -73l5 2q-35 -12 -64 -12q-61 0 -111.5 37t-74.5 98q-8 23 -17 47q-8 23 -19 52.5t-24 68.5h-389q-14 -39 -23.5 -68.5t-17.5 -52.5q-8 -25 -16 -45q-25 -61 -80 -99t-117 -38q-43 0 -78.5 17.5t-60.5 46t-39 65.5t-14 74z" />
<glyph unicode="&#xc5;" horiz-adv-x="1341" d="M31 195q0 35 12 69l446 1245q-55 41 -89.5 101.5t-34.5 138.5q0 63 23.5 120.5t63.5 98.5t95 65.5t117 24.5q63 0 117.5 -24.5t95.5 -65.5t64.5 -98.5t23.5 -120.5q0 -72 -31 -134.5t-82 -105.5l444 -1243q12 -37 13 -73q0 -63 -36 -118t-102 -73l5 2q-35 -12 -64 -12 q-61 0 -111.5 37t-74.5 98q-8 23 -17 47q-8 23 -19 52.5t-24 68.5h-389q-14 -39 -23.5 -68.5t-17.5 -52.5q-8 -25 -16 -45q-25 -61 -80 -99t-117 -38q-43 0 -78.5 17.5t-60.5 46t-39 65.5t-14 74z" />
<glyph unicode="&#xc6;" horiz-adv-x="1841" d="M31 195q0 35 12 69l444 1243q23 59 71 95t114 36h866q43 0 79 -16t61.5 -44t41 -65.5t15.5 -80.5t-15.5 -81t-41 -67t-61.5 -45t-79 -16h-387v-187h344q41 0 77 -16t63.5 -44t43 -66t15.5 -81t-15.5 -80.5t-43 -66.5t-63.5 -45t-77 -16h-344v-205h399q41 0 78 -16.5 t63.5 -45t42 -66.5t15.5 -81t-15.5 -81t-42 -65.5t-63.5 -44t-78 -16.5h-598q-41 0 -77.5 16.5t-63.5 44t-42 65.5t-15 81v88h-277q-14 -39 -23.5 -68.5t-17.5 -52.5q-8 -25 -16 -45q-25 -61 -80 -99t-117 -38q-43 0 -78.5 17.5t-60.5 46t-39 65.5t-14 74z" />
<glyph unicode="&#xc7;" horiz-adv-x="1243" d="M102 475v688q6 115 51.5 205t117 152.5t164.5 95.5t196 33q106 -4 202.5 -40t169 -98.5t115.5 -149.5t43 -198q0 -90 -58.5 -149.5t-139.5 -59.5q-84 0 -141.5 59.5t-57.5 149.5q0 39 -43 55.5t-90 16.5t-89 -16.5t-42 -55.5v-688q0 -39 42 -55.5t89 -16.5t90 16.5 t43 55.5q0 90 57.5 149.5t141.5 59.5q82 0 140 -59.5t58 -149.5q0 -72 -20.5 -137.5t-55 -121.5t-84 -99t-106.5 -68q29 -63 29 -135q0 -66 -25 -123t-65.5 -100t-98 -68.5t-121.5 -25.5q-63 0 -119.5 25.5t-97.5 68.5t-65.5 100t-24.5 123q0 41 14.5 76t38.5 61 q-61 29 -108 75t-80 102.5t-50.5 118.5t-19.5 128z" />
<glyph unicode="&#xc8;" horiz-adv-x="1200" d="M123 207v1225q0 80 51 138t127 66q-61 61 -61 150q0 45 17 84t46 66.5t66 43t75 15.5q25 0 50 -6l340 -105q61 -23 100 -81t39 -124q0 -27 -6 -51q59 -23 98 -75t39 -121q0 -43 -15.5 -81t-43 -67t-63.5 -45t-77 -16h-385v-187h342q41 0 78 -16t63.5 -44t42 -66t15.5 -81 t-15.5 -80.5t-42 -66.5t-63.5 -45t-78 -16h-342v-205h400q41 0 76.5 -16.5t63 -45t43 -66.5t15.5 -81t-15.5 -81t-43 -65.5t-63 -44t-76.5 -16.5h-598q-41 0 -78 16.5t-63.5 44t-42 65.5t-15.5 81z" />
<glyph unicode="&#xc9;" horiz-adv-x="1200" d="M123 207v1225q0 66 35 118t92 74v4q-10 31 -10 60q0 66 37.5 120t103.5 74l340 103h-2q25 8 55 8q37 0 73 -14.5t64.5 -42t46 -65.5t17.5 -83q0 -43 -17.5 -82t-46.5 -68q80 -4 136.5 -62t56.5 -144q0 -43 -15.5 -81t-43 -67t-63.5 -45t-77 -16h-385v-187h342 q41 0 78 -16t63.5 -44t42 -66t15.5 -81t-15.5 -80.5t-42 -66.5t-63.5 -45t-78 -16h-342v-205h400q41 0 76.5 -16.5t63 -45t43 -66.5t15.5 -81t-15.5 -81t-43 -65.5t-63 -44t-76.5 -16.5h-598q-41 0 -78 16.5t-63.5 44t-42 65.5t-15.5 81z" />
<glyph unicode="&#xca;" horiz-adv-x="1200" d="M123 207v1225q0 55 24.5 100t65.5 74q-14 35 -14 75q0 51 22.5 99.5t65.5 79.5l209 135h-2q45 33 106 33t113 -33l209 -137l-2 2q45 -29 67.5 -75t22.5 -97q0 -37 -13 -74q47 -27 77 -75t30 -107q0 -43 -15.5 -81t-43 -67t-63.5 -45t-77 -16h-385v-187h342q41 0 78 -16 t63.5 -44t42 -66t15.5 -81t-15.5 -80.5t-42 -66.5t-63.5 -45t-78 -16h-342v-205h400q41 0 76.5 -16.5t63 -45t43 -66.5t15.5 -81t-15.5 -81t-43 -65.5t-63 -44t-76.5 -16.5h-598q-41 0 -78 16.5t-63.5 44t-42 65.5t-15.5 81z" />
<glyph unicode="&#xcb;" horiz-adv-x="1200" d="M123 207v1225q0 63 31.5 114t85.5 74q-23 45 -23 98v94q0 43 15.5 81t43 66t63.5 44t77 16q66 0 115 -37.5t71 -97.5q20 59 70.5 97t115.5 38q41 0 77 -16t63.5 -44t43 -66t15.5 -81v-94q0 -45 -20 -90q59 -23 98 -75t39 -121q0 -43 -15.5 -81t-43 -67t-63.5 -45t-77 -16 h-385v-146h342q41 0 78 -16.5t63.5 -44t42 -65.5t15.5 -81t-15.5 -80.5t-42 -66.5t-63.5 -45t-78 -16h-342v-246h400q41 0 76.5 -16.5t63 -45t43 -66.5t15.5 -81t-15.5 -81t-43 -65.5t-63 -44t-76.5 -16.5h-598q-41 0 -78 16.5t-63.5 44t-42 65.5t-15.5 81z" />
<glyph unicode="&#xcc;" horiz-adv-x="716" d="M-8 1786q0 45 17.5 84t46 65.5t65.5 42t76 15.5q25 0 49 -6l340 -105q63 -23 101 -80t38 -125q0 -82 -53.5 -134t-120.5 -62q2 -10 3 -19.5t1 -19.5v-1245q0 -43 -15.5 -81t-43 -65.5t-63.5 -44t-77 -16.5t-77.5 16.5t-63.5 44t-42 65.5t-15 81v1245q0 74 41 127l-66 20 q-66 20 -103.5 75.5t-37.5 121.5z" />
<glyph unicode="&#xcd;" horiz-adv-x="716" d="M-8 1690q0 66 38 121t103 75l340 103h-4q25 8 53 8q37 0 73 -14.5t65.5 -41t47 -63.5t17.5 -82q0 -86 -52 -140t-132 -77q23 -29 37 -63.5t14 -73.5v-1245q0 -43 -15.5 -81t-43 -65.5t-63.5 -44t-77 -16.5t-77.5 16.5t-63.5 44t-42 65.5t-15 81v1245q0 10 1 19t3 20 q-39 0 -76 15t-66.5 43t-47 66t-17.5 85z" />
<glyph unicode="&#xce;" horiz-adv-x="790" d="M-10 1683q0 51 23.5 98.5t66.5 80.5l207 133h-2q51 35 108 35t111 -35l209 -135v2q45 -29 66.5 -75t21.5 -97q0 -29 -7.5 -58.5t-25.5 -58.5l2 2q-31 -49 -79 -70.5t-101 -21.5q2 -10 3 -20.5t1 -20.5v-1245q0 -43 -15.5 -81t-43 -65.5t-63.5 -44t-77 -16.5t-77.5 16.5 t-63.5 44t-42 65.5t-15 81v1245q0 10 1 20.5t3 20.5h-13q-37 0 -72.5 14t-63 41t-45 63.5t-17.5 81.5z" />
<glyph unicode="&#xcf;" horiz-adv-x="749" d="M-10 1718v94q0 43 15 81t43 66t63.5 44t76.5 16q63 0 113.5 -36.5t73.5 -96.5q23 59 72 96t114 37q41 0 77 -16t63.5 -44t43 -66t15.5 -81v-94q0 -43 -15.5 -81t-43 -65.5t-63.5 -44t-77 -16.5h-2q12 -35 12 -69v-1245q0 -43 -15 -81t-43 -65.5t-63.5 -44t-76.5 -16.5 t-78 16.5t-63.5 44t-42 65.5t-15.5 81v1245q0 33 10 69q-41 0 -75.5 16.5t-61.5 44t-42 65.5t-15 81z" />
<glyph unicode="&#xd1;" horiz-adv-x="1308" d="M123 197v1245q0 59 31.5 110.5t85.5 75.5q-6 31 -7 60q0 78 41 131q49 66 121 95.5t144 29.5q27 0 65.5 -9.5t134.5 -42.5q53 45 121 45q43 0 80 -17t63.5 -46t42 -67t15.5 -76q0 -45 -21 -91q61 -18 103.5 -72.5t42.5 -125.5v-1245q0 -41 -14.5 -78t-40 -66.5t-61.5 -47 t-77 -17.5q-53 0 -102 29.5t-78 80.5q-92 172 -149.5 276.5t-88 162t-42 78t-13.5 24.5v-442q0 -43 -15.5 -81t-42 -65.5t-63.5 -44t-77 -16.5q-41 0 -77 16.5t-63.5 44t-43 65.5t-15.5 81zM516 1499q94 -178 147.5 -278.5t81.5 -149.5q31 -57 41 -72v2v441v16q0 8 2 17 q-10 -2 -17 -2h-17q-53 0 -104.5 17t-98.5 34q-10 -8 -17.5 -14.5t-17.5 -10.5z" />
<glyph unicode="&#xd2;" d="M102 475v688q8 160 88 270.5t203 165.5q-55 25 -87 76t-32 111q0 47 17.5 85t47.5 65.5t66.5 43t73.5 15.5q25 0 49 -6l340 -105q63 -23 101.5 -80t38.5 -123q0 -41 -13.5 -75.5t-36.5 -57.5q90 -66 143.5 -164t57.5 -221v-688q-6 -115 -51 -205t-116.5 -152.5t-165 -95 t-195.5 -32.5q-113 0 -209 34.5t-166 97t-111 152.5t-43 201z" />
<glyph unicode="&#xd3;" d="M102 475v688q2 113 44 209t128 162l25 18q-25 29 -39 66t-14 74q0 66 38 120t103 74l340 103h-2q23 8 53 8q37 0 73 -14.5t64.5 -41t46 -64.5t17.5 -83q0 -59 -30.5 -110.5t-82.5 -79.5q66 -29 119 -70q86 -66 130 -161t44 -210v-688q0 -106 -40 -195.5t-110.5 -154 t-167 -100t-210.5 -35.5q-115 0 -212 34.5t-168 99t-110 153.5t-39 198z" />
<glyph unicode="&#xd4;" d="M102 475v688q0 115 44 210t128 161l9 6q-29 29 -44.5 69t-15.5 77q0 51 23.5 98t66.5 78l207 133h-2q51 35 109 35q57 0 110 -35l211 -135l-2 2q45 -31 66.5 -78t21.5 -96q0 -31 -8 -61t-25 -54l3 2q-6 -10 -12.5 -18.5t-14.5 -16.5l8 -6q86 -66 130 -161t44 -210v-688 q-6 -115 -51 -205t-116.5 -152.5t-165 -95t-195.5 -32.5q-113 0 -209 34.5t-166 97t-111 152.5t-43 201z" />
<glyph unicode="&#xd5;" d="M102 1163q0 115 44 210t128 161l11 6q-63 59 -64 154q0 57 29 105t73 81t98 51.5t105 18.5q12 0 27.5 -1t38 -6.5t54.5 -15.5t81 -26q55 43 121 43q43 0 79 -17.5t63.5 -45.5t43 -65.5t15.5 -76.5q0 -57 -27 -102.5t-70 -80.5q10 -4 17.5 -10t15.5 -12q86 -66 130 -161 t44 -210v-688q0 -106 -39 -195.5t-108.5 -154t-166.5 -100t-212 -35.5q-117 0 -213 34.5t-167 99t-110 154t-39 197.5z" />
<glyph unicode="&#xd6;" d="M102 475v688q0 115 44 210t128 161l33 22q-66 61 -65 158v94q0 43 15 81t42 65.5t63.5 44t77.5 16.5q63 0 112.5 -36.5t72.5 -96.5q23 59 73 96t113 37q41 0 78 -16.5t63.5 -44t42 -65.5t15.5 -81v-94q0 -47 -17.5 -86t-46.5 -67q104 -59 158.5 -167t54.5 -231v-688 q0 -106 -40 -195.5t-110.5 -154t-167 -100t-210.5 -35.5q-115 0 -212 34.5t-168 99t-110 153.5t-39 198z" />
<glyph unicode="&#xd7;" horiz-adv-x="1026" d="M113 580q0 39 13 71.5t33.5 59t43 48t39.5 38.5l-72 71q-29 29 -42 67t-13 77q0 43 16 79.5t44 63.5t61.5 42t70.5 15q35 0 67 -14t58.5 -34.5t49.5 -44.5l42 -42q31 29 56.5 53.5t49 43t49.5 28.5t58 10q39 0 74 -15t61.5 -43t43 -63.5t16.5 -78.5q0 -41 -13.5 -78 t-41.5 -66l-72 -71l74 -74q29 -29 41 -68t14 -77q0 -47 -17.5 -84t-46 -64t-63.5 -40t-68 -13q-18 0 -36.5 5t-44 19.5t-58.5 42t-78 72.5q-45 -45 -76.5 -72.5t-56 -42t-43 -18.5t-37.5 -4q-35 0 -69.5 14.5t-63.5 41t-46 63.5t-17 82z" />
<glyph unicode="&#xd8;" horiz-adv-x="1310" d="M104 117q0 25 5.5 50.5t17.5 47.5l37 70q-20 45 -28.5 92t-8.5 100v684q6 115 50 206t116 153.5t165 95.5t197 33q98 0 179 -27q29 51 78 79t102 28q41 0 82 -19l4 -2q53 -29 79.5 -77t26.5 -101q0 -25 -5 -50.5t-17 -47.5l2 2l-12 -25q-4 -8 -8.5 -15.5t-8.5 -15.5 l-12 -24q39 -90 39 -193v-684q-6 -115 -51.5 -205t-117 -153.5t-164.5 -96t-196 -32.5q-98 0 -180 26q-29 -47 -76 -73.5t-100 -26.5q-45 0 -81 17.5t-61.5 46t-39 64.5t-13.5 73z" />
<glyph unicode="&#xd9;" d="M102 475v967q0 43 15.5 81t42 65.5t63.5 44t78 16.5h10q-53 57 -53 135q0 27 10 61q18 68 74.5 109t122.5 41q25 0 49 -6l340 -105q61 -23 100 -79t39 -122q0 -10 -1 -18t-3 -18q72 -10 121 -68.5t49 -136.5v-967q0 -106 -40 -195.5t-110.5 -154t-167 -100t-210.5 -35.5 q-115 0 -211 34.5t-167 98t-111 153.5t-40 199zM453 1575q23 -29 35 -61.5t12 -71.5v-967q0 -39 42 -55.5t89 -16.5t89 16.5t42 55.5v967q0 10 1 19t3 20q-20 4 -29 8h2z" />
<glyph unicode="&#xda;" d="M102 475v967q0 80 50.5 138t126.5 67q-6 20 -7 45q0 66 38 120t104 74l340 103h-2q23 8 53 8q37 0 72.5 -14.5t65.5 -41t47.5 -64.5t17.5 -83q0 -41 -15.5 -79t-42.5 -66h11q41 0 76.5 -16.5t63 -44t43 -65.5t15.5 -81v-967q0 -106 -40 -195.5t-110.5 -154t-167 -100 t-210.5 -35.5q-115 0 -211 34.5t-167 98t-111 153.5t-40 199zM496 1483q2 -10 3 -20.5t1 -20.5v-967q0 -39 42 -55.5t89 -16.5t89 16.5t42 55.5v967q0 76 45 131l-279 -84q-16 -6 -32 -6z" />
<glyph unicode="&#xdb;" d="M102 475v967q0 66 35 118t90 74q-6 25 -6 47q0 53 23.5 100.5t66.5 80.5l207 133q47 35 107 35q59 0 112 -35l209 -135l-2 2q45 -29 66.5 -75t21.5 -97q0 -29 -6 -54q59 -23 96 -75t37 -119v-967q0 -106 -40 -195.5t-110.5 -154t-167 -100t-210.5 -35.5q-115 0 -211 34.5 t-167 98t-111 153.5t-40 199zM492 1495q4 -12 6 -25.5t2 -27.5v-967q0 -39 42 -55.5t89 -16.5t89 16.5t42 55.5v967q0 27 6 51q-10 4 -20.5 9t-20.5 11l-98 66l-101 -66q-10 -6 -18 -10t-18 -8z" />
<glyph unicode="&#xdc;" d="M102 475v967q0 74 44 130t112 73q-10 35 -10 69v94q0 43 15.5 81t43 65.5t63.5 44t76 16.5q66 0 115 -38t72 -97q20 59 70.5 97t115.5 38q41 0 77 -16.5t63.5 -44t43 -65.5t15.5 -81v-94q0 -39 -12 -72q66 -16 109.5 -71t43.5 -129v-967q-6 -115 -51 -205t-116.5 -152.5 t-165 -95t-195.5 -32.5q-113 0 -209 34.5t-166 97t-111 152.5t-43 201zM487 1509q12 -31 13 -67v-967q0 -39 42 -55.5t89 -16.5t89 16.5t42 55.5v967q0 33 10 67q-47 12 -85 47t-54 82q-40 -102 -146 -129z" />
<glyph unicode="&#xdd;" horiz-adv-x="1185" d="M113 848v594q0 66 33.5 117t86.5 73q-6 25 -6 51q0 66 38 122.5t104 76.5l340 103h-4q25 8 55 8q37 0 72.5 -14.5t65.5 -41t47.5 -64.5t17.5 -83q0 -41 -15.5 -78t-42.5 -65q72 -12 120 -69.5t48 -135.5v-1006q-6 -104 -47 -187t-105.5 -140.5t-149.5 -88t-179 -30.5 q-190 0 -317.5 100t-155.5 270q-2 10 -3 18.5t-1 18.5q0 53 25.5 99.5t68.5 72.5q-96 115 -96 279zM504 1491q6 -25 6 -49v-594q0 -10 10 -15.5t23.5 -8.5t28 -4t20.5 -1t20.5 1t28.5 4t24.5 8.5t10.5 15.5v594q0 63 31 110z" />
<glyph unicode="&#xdf;" horiz-adv-x="1220" d="M133 37v1137q0 98 32 185t93 148q66 70 155 107t191 37q94 0 189.5 -36t162.5 -108h-2q61 -63 93 -149t32 -184q0 -72 -17.5 -151t-55.5 -136q74 -72 98 -163t24 -192q0 -111 -33.5 -212t-99.5 -170q-92 -96 -193.5 -128t-195.5 -32q-43 0 -84 20q-10 -76 -64.5 -127 t-129.5 -51q-41 0 -76 15.5t-61.5 43t-42 65.5t-15.5 81z" />
<glyph unicode="&#xe0;" horiz-adv-x="1193" d="M82 410v329q0 74 22.5 139.5t63.5 120t98.5 92t126.5 56.5l-82 27q-59 20 -96 75.5t-37 116.5q0 43 17.5 78t44 60.5t60.5 38.5t69 13q31 0 53 -8h-2l317 -98q61 -18 98 -71.5t37 -112.5q0 -53 -26.5 -97.5t-63.5 -68.5q96 -55 149.5 -149.5t53.5 -211.5v-358 q39 0 73 -15.5t59.5 -41t41 -61.5t15.5 -77q0 -82 -54.5 -139t-132.5 -57q-121 0 -205 63q-115 -63 -247 -63q-92 0 -175.5 29.5t-144.5 84t-97 132.5t-36 174z" />
<glyph unicode="&#xe1;" horiz-adv-x="1193" d="M82 410v329q0 98 39 181.5t106 142.5l47 31q-43 25 -71.5 69.5t-28.5 100.5q0 61 36 114.5t97 71.5l322 98h-4q25 6 49 6q35 0 69.5 -13t62.5 -38.5t44 -61.5t16 -79q0 -90 -57 -139t-145 -72q74 -20 133 -59t101 -92.5t64.5 -120t22.5 -140.5v-333v-15q0 -10 2 -10 q78 0 132.5 -56.5t54.5 -138.5t-54.5 -139t-132.5 -57q-121 0 -205 63q-115 -63 -247 -63q-98 0 -181.5 30.5t-143.5 87t-94 133.5t-34 169z" />
<glyph unicode="&#xe2;" horiz-adv-x="1193" d="M82 410v329q0 98 39 181.5t106 142.5q2 2 11 6q-41 27 -63.5 70t-22.5 90t21.5 93t62.5 75l194 127q49 33 100 32q53 0 107 -32l197 -129l-3 2q41 -29 62.5 -74t21.5 -92q0 -61 -30 -107h2q-25 -35 -58 -55q2 -4 11 -8q70 -59 107.5 -141t37.5 -181v-333v-15q0 -10 2 -10 q78 0 132.5 -56.5t54.5 -138.5t-54.5 -139t-132.5 -57q-121 0 -205 63q-115 -63 -247 -63q-98 0 -181.5 30.5t-143.5 87t-94 133.5t-34 169z" />
<glyph unicode="&#xe3;" horiz-adv-x="1193" d="M82 410v329q0 123 62.5 226.5t170.5 150.5q-78 10 -123 67.5t-45 129.5q0 55 27 99t69 76t92 49t99 17q12 0 26.5 -1t36 -6t52.5 -14t76 -26q53 41 114 41q31 0 64 -13t60.5 -37.5t46 -61.5t18.5 -82q0 -84 -58.5 -143.5t-134.5 -84.5q119 -59 184.5 -156.5t65.5 -230.5 v-333v-15q0 -10 2 -10q78 0 132.5 -56.5t54.5 -138.5t-54.5 -139t-132.5 -57q-121 0 -205 63q-115 -63 -247 -63q-98 0 -181.5 30.5t-143.5 87t-94 133.5t-34 169z" />
<glyph unicode="&#xe4;" horiz-adv-x="1193" d="M82 410v329q0 117 55.5 214.5t151.5 150.5q-41 27 -65.5 71t-24.5 97v88q0 41 14 77t40 62.5t60.5 41.5t73.5 15q47 0 85 -22.5t65 -56.5q25 35 64.5 57t86.5 22q78 0 132 -57t54 -139v-88q0 -55 -26.5 -100.5t-67.5 -69.5q98 -59 151.5 -152.5t53.5 -210.5v-333v-15 q0 -10 2 -10q78 0 132.5 -56.5t54.5 -138.5t-54.5 -139t-132.5 -57q-121 0 -205 63q-115 -63 -247 -63q-98 0 -181.5 30.5t-143.5 87t-94 133.5t-34 169z" />
<glyph unicode="&#xe5;" horiz-adv-x="1193" d="M82 410v329q0 129 65.5 231.5t182.5 151.5q-35 41 -55.5 90.5t-20.5 108.5q0 61 22.5 113.5t60.5 92.5t89 62.5t111 22.5q59 0 111 -22.5t90 -62.5t60.5 -92.5t22.5 -113.5q0 -59 -21.5 -109.5t-56.5 -89.5q113 -53 177.5 -153.5t64.5 -229.5v-333v-15q0 -10 2 -10 q78 0 132.5 -56.5t54.5 -138.5t-54.5 -139t-132.5 -57q-121 0 -205 63q-115 -63 -247 -63q-98 0 -181.5 30.5t-143.5 87t-94 133.5t-34 169z" />
<glyph unicode="&#xe6;" horiz-adv-x="1542" d="M82 387q0 104 35 181t76 118q-35 29 -55.5 71t-20.5 89q0 16 2 31.5t8 31.5q43 123 147.5 191.5t243.5 68.5q68 0 126 -15t114 -52q55 35 118.5 51t131.5 16q88 0 168.5 -27.5t140.5 -80.5l-2 2q145 -121 145 -322v-110q0 -39 -12 -71t-35 -58q20 -29 31.5 -64t11.5 -69 v-14q0 -7 -2 -13q-27 -160 -146.5 -256t-299.5 -96q-72 0 -135.5 15t-120.5 50q-51 -33 -114 -50t-130 -17q-94 0 -172 29.5t-134.5 83t-88 126t-31.5 160.5z" />
<glyph unicode="&#xe7;" horiz-adv-x="1058" d="M82 412v327q4 96 40 176t96.5 136.5t141 87t172.5 30.5q84 0 159 -26.5t133.5 -72.5t99.5 -109.5t57 -139.5q2 -10 2 -18v-17q0 -39 -14.5 -74.5t-39 -63t-58 -44t-72.5 -16.5q-66 0 -120 45t-69 115q-2 16 -27.5 23t-50.5 7t-50 -8t-25 -31v-327q0 -10 9 -16.5 t22.5 -9.5t25.5 -4t18 -1q14 0 45 3t35 17q14 72 67.5 119t121.5 47q39 0 72.5 -15t58 -42t39 -62.5t14.5 -74.5q0 -53 -16.5 -100.5t-44 -89.5t-64.5 -74.5t-76 -55.5q31 -61 31 -133q0 -61 -22.5 -115.5t-62.5 -96.5t-93 -65.5t-113 -23.5q-61 0 -114.5 23.5t-93.5 65.5 t-62.5 96.5t-22.5 115.5q0 39 15.5 74t40.5 57q-100 61 -152.5 154.5t-52.5 206.5z" />
<glyph unicode="&#xe8;" horiz-adv-x="1069" d="M82 412v327q6 158 94 266.5t225 145.5l-69 23q-61 20 -97 74.5t-38 115.5q0 43 16 79t44 60.5t61.5 38.5t68.5 14q31 0 53 -8l318 -98q61 -18 97 -70.5t36 -113.5q0 -55 -28.5 -101.5t-71.5 -70.5q90 -55 143 -146.5t53 -208.5v-108q0 -39 -12 -72t-35 -59 q20 -29 32.5 -61.5t12.5 -67.5q0 -18 -2 -29q-12 -80 -51 -145.5t-97.5 -111.5t-135 -70.5t-167.5 -24.5q-94 0 -176 31.5t-143 87t-96 133.5t-35 170z" />
<glyph unicode="&#xe9;" horiz-adv-x="1069" d="M82 412v327q4 115 54 205t132 146q-47 25 -76.5 70.5t-29.5 105.5q0 61 35.5 113.5t97.5 70.5l321 98h-4q25 6 50 6q35 0 69.5 -13t62 -37.5t44 -60.5t16.5 -79q0 -88 -55.5 -138t-141.5 -73q72 -18 132.5 -57t104.5 -93.5t68.5 -121t24.5 -142.5v-108q0 -39 -12 -72 t-35 -59q20 -29 32.5 -61.5t12.5 -67.5q0 -18 -2 -29q-12 -80 -51 -145.5t-97.5 -111.5t-135 -70.5t-167.5 -24.5q-94 0 -176 31.5t-143 87t-96 133.5t-35 170z" />
<glyph unicode="&#xea;" horiz-adv-x="1069" d="M82 412v327q4 104 45 186.5t109 139.5q-43 25 -69 71t-26 95q0 47 21.5 92t62.5 74l197 127h-2q49 33 102 32q51 0 105 -32l198 -129q39 -31 59.5 -75t20.5 -91q0 -100 -84 -158q76 -57 121 -142t45 -190v-108q0 -39 -12 -72t-35 -59q20 -29 32.5 -61.5t12.5 -67.5 q0 -18 -2 -29q-12 -80 -51 -145.5t-97.5 -111.5t-135 -70.5t-167.5 -24.5q-94 0 -176 31.5t-143 87t-96 133.5t-35 170z" />
<glyph unicode="&#xeb;" horiz-adv-x="1069" d="M82 412v327q0 98 37 181.5t108 142.5q31 23 60 41q-41 27 -65.5 71t-24.5 97v88q0 82 54 139t132 57q47 0 86 -22.5t66 -56.5q25 35 63.5 57t85.5 22q39 0 74 -15t60.5 -41.5t39.5 -62.5t14 -77v-88q0 -55 -26.5 -99.5t-67.5 -70.5q94 -55 151.5 -150.5t57.5 -212.5v-108 q0 -39 -12 -72t-35 -59q20 -29 32.5 -61.5t12.5 -67.5q0 -18 -2 -29q-12 -80 -51 -145.5t-97.5 -111.5t-135 -70.5t-167.5 -24.5q-94 0 -176 31.5t-143 87t-96 133.5t-35 170z" />
<glyph unicode="&#xec;" horiz-adv-x="675" d="M-8 1366q0 43 17.5 78t44 60.5t60 38.5t68.5 13q29 0 54 -8h-3l318 -98q61 -20 98 -72.5t37 -113.5q0 -45 -17.5 -81t-46 -61.5t-63.5 -39t-72 -13.5q25 -43 25 -96v-787q0 -41 -14.5 -76.5t-40 -62.5t-60.5 -42t-73 -15q-78 0 -132.5 57t-54.5 139v787q0 53 24.5 98 t65.5 70l-102 33q-59 23 -96 76t-37 116z" />
<glyph unicode="&#xed;" horiz-adv-x="673" d="M-10 1264q0 61 35.5 114.5t97.5 71.5l321 98h-4q25 6 49 6q35 0 70 -13t62.5 -38.5t44 -61.5t16.5 -79q0 -61 -36 -113.5t-95 -74.5q-27 -10 -53.5 -17.5t-55.5 -17.5q41 -27 64.5 -70t23.5 -96v-787q0 -82 -54 -139t-132 -57q-39 0 -73.5 15t-60.5 42t-40 62.5t-14 76.5 v787q0 51 22 96q-35 0 -68.5 15.5t-60 41t-43 60.5t-16.5 78z" />
<glyph unicode="&#xee;" horiz-adv-x="745" d="M-10 1229q0 47 21.5 93t62.5 75l196 127h-2q49 33 103 32q51 0 104 -32l197 -129v2q41 -29 62.5 -72t21.5 -92q0 -27 -7.5 -55.5t-25.5 -53.5h2q-27 -41 -72 -63.5t-92 -22.5h-12q12 -31 12 -65v-787q0 -41 -14.5 -76.5t-40 -62.5t-60 -42t-73.5 -15q-78 0 -132.5 57 t-54.5 139v787q0 39 11 65h-13q-37 0 -71.5 13.5t-62 38t-44 59.5t-16.5 80z" />
<glyph unicode="&#xef;" horiz-adv-x="655" d="M-10 1272v88q0 82 54 139t132 57q47 0 86 -22.5t66 -56.5q25 35 63.5 57t85.5 22q39 0 74 -15t60.5 -41.5t40 -62.5t14.5 -77v-88q0 -78 -51.5 -135.5t-127.5 -61.5q29 -47 29 -102v-787q0 -41 -14.5 -76.5t-40 -62.5t-60 -42t-73.5 -15t-74 15t-60.5 42t-40 62.5 t-14.5 76.5v787q0 53 27 102q-74 4 -125 60.5t-51 136.5z" />
<glyph unicode="&#xf1;" horiz-adv-x="1132" d="M123 186v787q0 66 37 117t96 69q-35 29 -50.5 69t-15.5 83q0 57 29 102t72 76t93 47t95 16q25 0 50.5 -4t54.5 -14h-2l88 -29q53 41 112 41q29 0 62 -11t61 -36v2q68 -57 68 -149q0 -43 -17.5 -79t-45 -65.5t-61.5 -50t-67 -33.5q57 -27 101 -61h2q72 -59 108.5 -142 t36.5 -182v-553q0 -41 -14.5 -76.5t-40 -62.5t-60 -42t-73.5 -15t-73 15t-59.5 42t-40 62.5t-14.5 76.5v553q0 23 -25.5 31t-54.5 8q-27 0 -52 -8t-25 -31v-553q0 -82 -54.5 -139t-132.5 -57q-39 0 -73.5 15t-60 42t-40 62.5t-14.5 76.5z" />
<glyph unicode="&#xf2;" horiz-adv-x="1110" d="M102 412v327q6 156 94.5 265.5t223.5 146.5l-70 23q-61 20 -97 74.5t-38 115.5q0 43 16.5 79t44 60.5t62.5 38.5t70 14q29 0 53 -8h-2l317 -98q61 -20 98 -72.5t37 -113.5q0 -57 -29.5 -101.5t-70.5 -66.5q90 -57 143.5 -149.5t53.5 -207.5v-327q-4 -100 -40 -179 t-97.5 -132.5t-142.5 -82t-175 -28.5t-176 31.5t-143.5 87t-96.5 133.5t-35 170z" />
<glyph unicode="&#xf3;" horiz-adv-x="1110" d="M102 412v327q4 119 57.5 211t139.5 148q-41 25 -67.5 67.5t-26.5 98.5q0 61 35.5 114.5t97.5 71.5l321 98q20 6 48 6q35 0 68.5 -13t61 -38.5t45 -61.5t17.5 -81q0 -63 -37 -114.5t-96 -71.5l-76 -25q70 -20 128.5 -58t100.5 -91.5t65.5 -120t23.5 -140.5v-327 q-4 -98 -41 -176t-98.5 -132.5t-142.5 -84t-173 -29.5q-94 0 -176 31.5t-143.5 87t-96.5 133.5t-35 170z" />
<glyph unicode="&#xf4;" horiz-adv-x="1110" d="M102 412v327q4 104 46 188.5t112 141.5q-43 29 -66.5 72t-23.5 90t21.5 92t62.5 74l197 127q49 33 100 32q51 0 104 -32l199 -129q41 -27 61.5 -70t20.5 -92q0 -43 -20.5 -89t-67.5 -75q74 -59 117 -143t43 -187v-327q-4 -98 -41 -176t-98.5 -132.5t-142.5 -84 t-173 -29.5q-94 0 -176 31.5t-143.5 87t-96.5 133.5t-35 170z" />
<glyph unicode="&#xf5;" horiz-adv-x="1110" d="M102 412v327q4 131 67.5 228.5t166.5 150.5q-41 2 -73 19.5t-55.5 44t-35.5 61.5t-12 72q0 68 41 119v2q47 59 112.5 89.5t132.5 30.5q51 0 107 -18h-2l86 -31q51 43 115 43q29 0 61.5 -11t60.5 -38l-2 4q68 -59 68 -149q0 -43 -17.5 -80t-44 -65.5t-61.5 -50t-67 -32.5 q115 -51 186.5 -153.5t71.5 -235.5v-327q-4 -98 -41 -176t-98.5 -132.5t-142.5 -84t-173 -29.5q-94 0 -176 31.5t-143.5 87t-96.5 133.5t-35 170z" />
<glyph unicode="&#xf6;" horiz-adv-x="1110" d="M102 412v327q4 123 59.5 216.5t145.5 146.5q-41 27 -66.5 71t-25.5 99v88q0 41 14.5 77t40 62.5t60.5 41.5t73 15q47 0 85 -22.5t65 -56.5q25 35 64.5 57t87.5 22q78 0 132 -57t54 -139v-88q0 -53 -25.5 -98.5t-66.5 -71.5q94 -55 151.5 -150.5t57.5 -212.5v-327 q-4 -98 -41 -176t-98.5 -132.5t-142.5 -84t-173 -29.5q-94 0 -176 31.5t-143.5 87t-96.5 133.5t-35 170z" />
<glyph unicode="&#xf7;" horiz-adv-x="1081" d="M92 666q0 82 54.5 139t132.5 57h133q-49 55 -50 133v39q0 41 14.5 77t40 62.5t60.5 42t74 15.5t72.5 -15.5t59.5 -42t40 -62.5t14 -77v-39q0 -78 -49 -133h115q78 0 132 -57t54 -139t-54 -138.5t-132 -56.5h-131q66 -59 65 -149v-39q0 -41 -14 -77t-40 -62.5t-59.5 -42 t-72.5 -15.5t-74 15.5t-60.5 42t-40 62.5t-14.5 77v39q0 45 17.5 82.5t48.5 66.5h-149q-78 0 -132.5 56.5t-54.5 138.5z" />
<glyph unicode="&#xf8;" horiz-adv-x="1114" d="M82 115q0 27 6 53.5t23 48.5l22 35q-29 74 -29 160v327q0 94 36 173t97.5 135.5t144.5 88t175 31.5q63 0 129 -16q29 41 71 63.5t89 22.5q51 0 96 -27q43 -27 66.5 -70.5t23.5 -92.5q0 -57 -31 -107l-22 -37q31 -78 31 -164v-327q0 -90 -34 -167t-93.5 -134.5t-143.5 -89 t-182 -31.5q-35 0 -67.5 4t-65.5 10q-29 -41 -72 -62.5t-88 -21.5q-41 0 -74.5 17.5t-57 45t-37 62.5t-13.5 70z" />
<glyph unicode="&#xf9;" horiz-adv-x="1112" d="M102 412v561q0 41 14.5 76.5t40 62.5t60.5 42t74 15q78 0 132 -57t54 -139v-561q0 -10 9.5 -16.5t22.5 -9.5t26.5 -4t19.5 -1t19.5 1t26.5 4t22.5 9t9.5 17v561q0 55 26 102l-313 99q-59 23 -97 74.5t-38 115.5q0 43 16.5 79t44 60.5t62.5 38.5t69 14q29 0 54 -8h-2 l317 -98q61 -20 98 -72.5t37 -113.5q0 -29 -8 -55.5t-22 -49.5q57 -18 95 -69.5t38 -116.5v-561q-2 -96 -40 -174t-100.5 -133.5t-143.5 -85t-171 -29.5q-94 0 -176 30.5t-143.5 87t-97.5 134.5t-36 170z" />
<glyph unicode="&#xfa;" horiz-adv-x="1112" d="M102 412v561q0 66 36 116t91 70q-16 23 -23 51.5t-7 55.5q0 61 35.5 113.5t97.5 70.5l319 98h-2q25 6 49 6q33 0 68 -13t62.5 -37.5t45 -60.5t17.5 -79q0 -61 -36 -115.5t-95 -74.5q-78 -27 -157 -50.5t-154 -46.5q29 -47 28 -104v-561q0 -10 9.5 -16.5t22.5 -9.5 t26.5 -4t19.5 -1t19.5 1t26.5 4t22.5 9t9.5 17v561q0 41 14.5 76.5t40 62.5t60 42t73.5 15t74 -15t60.5 -42t40 -62.5t14.5 -76.5v-561q-2 -96 -40 -174t-100.5 -133.5t-143.5 -85t-171 -29.5q-94 0 -176 30.5t-143.5 87t-97.5 134.5t-36 170z" />
<glyph unicode="&#xfb;" horiz-adv-x="1112" d="M102 412v561q0 53 24 96t64 70q-23 37 -22 88q0 49 22.5 94t63.5 76l197 127h-2q45 33 100 32q53 0 106 -32l197 -129l-2 2q43 -29 63.5 -72t20.5 -92q0 -23 -5 -45.5t-16 -44.5q43 -25 70 -70t27 -100v-561q-2 -96 -40 -174t-100.5 -133.5t-143.5 -85t-171 -29.5 q-94 0 -176 30.5t-143.5 87t-97.5 134.5t-36 170zM455 1065q23 -45 22 -92v-561q0 -10 9.5 -16.5t22.5 -9.5t26.5 -4t19.5 -1t19.5 1t26.5 4t22.5 9t9.5 17v561q0 49 20 88l-8 6q-37 25 -56.5 37t-27.5 18l-8 8z" />
<glyph unicode="&#xfc;" horiz-adv-x="1112" d="M102 412v561q0 72 42 124t106 66q-31 45 -31 109v88q0 41 14.5 77t40 62.5t60.5 41.5t74 15q47 0 84.5 -22.5t64.5 -56.5q25 35 65 57t87 22q78 0 132 -57t54 -139v-88q0 -31 -8 -58.5t-23 -50.5q63 -16 104.5 -68.5t41.5 -121.5v-561q-2 -96 -40 -174t-100.5 -133.5 t-143.5 -85t-171 -29.5q-94 0 -176 30.5t-143.5 87t-97.5 134.5t-36 170zM446 1079q31 -47 31 -106v-561q0 -10 9.5 -16.5t22.5 -9.5t26.5 -4t19.5 -1t19.5 1t26.5 4t22.5 9t9.5 17v561q0 61 31 108q-68 16 -107 74q-41 -60 -111 -76z" />
<glyph unicode="&#xfd;" horiz-adv-x="1148" d="M123 410v563q0 55 26.5 100t69.5 72q-41 51 -41 119q0 61 36 114.5t97 71.5l318 98q25 6 49 6q35 0 69.5 -13t62.5 -38.5t44 -60.5t16 -78q0 -61 -35.5 -115.5t-95.5 -74.5q-68 -23 -139.5 -44.5t-138.5 -42.5q35 -51 35 -114v-565q0 -10 10 -16.5t23.5 -8.5t25.5 -2h18 h20q13 0 26.5 2t22.5 8t9 17v565q0 41 15.5 76.5t41 62.5t59.5 42t71 15q39 0 72.5 -15t59 -42t40 -62.5t14.5 -76.5v-936q-4 -96 -41 -174t-97.5 -132.5t-140 -83t-172.5 -28.5q-180 0 -298.5 95.5t-145.5 256.5q-2 8 -2 17v16q0 47 20.5 88t55.5 68q-80 105 -80 250z" />
<glyph unicode="&#xff;" horiz-adv-x="1148" d="M223 1495v92q0 43 15.5 80t42 64.5t61.5 43t76 15.5q47 0 87 -21.5t69 -60.5q29 39 68.5 60.5t88.5 21.5q39 0 75 -15.5t62.5 -43t42 -64.5t15.5 -80v-92q0 -43 -15.5 -80t-42 -64.5t-62.5 -43t-75 -15.5q-49 0 -89 22.5t-68 59.5q-29 -37 -69 -59.5t-87 -22.5 q-41 0 -76 15.5t-61.5 43t-42 64.5t-15.5 80zM123 410v563q0 41 15.5 76.5t41 62.5t59 42t70.5 15q39 0 74 -15t60.5 -42t40 -62.5t14.5 -76.5v-561q0 -10 9 -16.5t22.5 -9.5t26.5 -4t19 -1t19.5 1t26 4t22.5 9t10 17v561q0 41 15.5 76.5t41 62.5t59.5 42t71 15 q78 0 132 -57t54 -139v-934q-4 -96 -41 -174t-97.5 -132.5t-141 -84t-171.5 -29.5q-180 0 -299.5 95.5t-146.5 256.5q-2 8 -2 17v16q0 47 20.5 88t55.5 68q-80 105 -80 250z" />
<glyph unicode="&#x152;" horiz-adv-x="1837" d="M102 475v688q6 117 50.5 208t115 152.5t163.5 93.5t198 32q115 0 221 -45q23 14 51.5 24t56.5 10h586q41 0 78 -16t63.5 -44t42 -65.5t15.5 -80.5t-15.5 -81t-42 -67t-63.5 -45t-78 -16h-387v-187h344q41 0 78 -16t63.5 -44t42 -66t15.5 -81t-15.5 -80.5t-42 -66.5 t-63.5 -45t-78 -16h-344v-205h399q41 0 78 -16.5t63.5 -45t42 -66.5t15.5 -81t-15.5 -81t-42 -65.5t-63.5 -44t-78 -16.5h-598q-29 0 -56.5 9t-49.5 26q-109 -45 -223 -45q-113 0 -208 34.5t-165 97t-111 152.5t-43 201z" />
<glyph unicode="&#x153;" horiz-adv-x="1615" d="M102 410v325q0 94 36 173t97.5 136.5t143.5 89t174 31.5q150 0 266 -75q113 76 264 75q92 0 174 -31.5t143.5 -89t97.5 -136.5t36 -173v-104q0 -39 -12.5 -73t-32.5 -60q43 -59 43 -127q0 -20 -2 -31q-27 -160 -146.5 -255t-300.5 -95q-154 0 -266 73q-115 -74 -264 -73 q-96 0 -178 30.5t-142.5 86t-95.5 133.5t-35 170z" />
<glyph unicode="&#x178;" horiz-adv-x="1206" d="M123 848v594q0 59 29.5 107t76.5 75q-20 41 -20 94v94q0 43 15.5 81t42 66t63.5 44t78 16q63 0 112 -36.5t72 -96.5q23 59 73 96t113 37q41 0 78 -16t63.5 -44t42 -66t15.5 -81v-94q0 -47 -19 -86q55 -23 90 -74t35 -116v-1006q0 -98 -36.5 -181t-101 -141.5t-152.5 -91 t-191 -32.5q-94 0 -174 26.5t-141.5 74.5t-102.5 116.5t-55 152.5q-2 10 -3 18.5t-1 16.5q0 55 25.5 101.5t68.5 72.5q-47 57 -71.5 128t-24.5 151zM500 1534q20 -47 20 -92v-594q0 -10 10.5 -15.5t23.5 -8.5t27.5 -4t20.5 -1q8 0 21.5 1t28 4t24.5 8.5t10 15.5v594 q0 45 16 84q-37 16 -65.5 46t-44.5 70q-26 -73 -92 -108z" />
<glyph unicode="&#x2c6;" horiz-adv-x="888" d="M61 1325q0 47 21.5 93t62.5 75l197 127h-2q49 33 102 33q51 0 105 -33l196 -129v2q41 -29 62.5 -72t21.5 -92q0 -27 -7 -55.5t-25 -52.5h2q-27 -41 -71 -63.5t-91 -22.5q-53 0 -98 28q-37 25 -56.5 37t-27.5 19l-9 8l-92 -64q-23 -16 -49.5 -21t-50.5 -7q-35 0 -70 13 t-61.5 38.5t-43 60.5t-16.5 78z" />
<glyph unicode="&#x2dc;" horiz-adv-x="903" d="M61 1407q0 68 41 119v2q47 59 113 90t133 31q27 0 52.5 -4.5t54.5 -14.5h-2l86 -28q53 41 114 40q29 0 62 -11t61 -38l-2 4q68 -55 68 -149q0 -55 -28 -100t-71 -77t-94 -49.5t-96 -17.5q-27 0 -50.5 4t-51.5 15l-89 28q-53 -41 -114 -41q-41 0 -76 16.5t-59.5 44 t-38 63.5t-13.5 73zM387 1274q0 2 1 2t1 2z" />
<glyph unicode="&#x2000;" horiz-adv-x="1028" />
<glyph unicode="&#x2001;" horiz-adv-x="2058" />
<glyph unicode="&#x2002;" horiz-adv-x="1028" />
<glyph unicode="&#x2003;" horiz-adv-x="2058" />
<glyph unicode="&#x2004;" horiz-adv-x="686" />
<glyph unicode="&#x2005;" horiz-adv-x="514" />
<glyph unicode="&#x2006;" horiz-adv-x="342" />
<glyph unicode="&#x2007;" horiz-adv-x="342" />
<glyph unicode="&#x2008;" horiz-adv-x="256" />
<glyph unicode="&#x2009;" horiz-adv-x="411" />
<glyph unicode="&#x200a;" horiz-adv-x="112" />
<glyph unicode="&#x2010;" horiz-adv-x="974" d="M82 784q0 43 15.5 80t41 64.5t61.5 43t76 15.5h422q41 0 77 -15.5t61.5 -43t41 -64.5t15.5 -80t-15.5 -79.5t-41 -64.5t-61.5 -44t-77 -16h-422q-41 0 -76.5 16t-61 44t-41 64.5t-15.5 79.5z" />
<glyph unicode="&#x2011;" horiz-adv-x="974" d="M82 784q0 43 15.5 80t41 64.5t61.5 43t76 15.5h422q41 0 77 -15.5t61.5 -43t41 -64.5t15.5 -80t-15.5 -79.5t-41 -64.5t-61.5 -44t-77 -16h-422q-41 0 -76.5 16t-61 44t-41 64.5t-15.5 79.5z" />
<glyph unicode="&#x2012;" horiz-adv-x="974" d="M82 784q0 43 15.5 80t41 64.5t61.5 43t76 15.5h422q41 0 77 -15.5t61.5 -43t41 -64.5t15.5 -80t-15.5 -79.5t-41 -64.5t-61.5 -44t-77 -16h-422q-41 0 -76.5 16t-61 44t-41 64.5t-15.5 79.5z" />
<glyph unicode="&#x2013;" horiz-adv-x="1099" d="M61 756q0 41 14.5 76.5t40 61.5t60.5 41t74 15h602q78 0 132 -56t54 -138t-54 -139.5t-132 -57.5h-602q-39 0 -74 15.5t-60.5 42t-40 62.5t-14.5 77z" />
<glyph unicode="&#x2014;" horiz-adv-x="1351" d="M72 756q0 82 54 138t132 56h834q39 0 73.5 -15t60 -41t40 -61.5t14.5 -76.5t-14.5 -77t-40 -62.5t-60.5 -42t-73 -15.5h-834q-78 0 -132 57.5t-54 139.5z" />
<glyph unicode="&#x2018;" horiz-adv-x="514" d="M41 1315q0 57 22 106l50 113q23 53 71.5 85t106.5 32q41 0 74.5 -16.5t57 -44t36 -62.5t12.5 -72q0 -39 -12 -72q12 -35 12 -77q0 -47 -17.5 -89t-47 -73t-69.5 -48.5t-85 -17.5q-47 0 -86 19.5t-66.5 52.5t-43 76t-15.5 88z" />
<glyph unicode="&#x2019;" horiz-adv-x="514" d="M41 1268q0 39 14 73q-12 37 -12 78q0 47 17.5 89t47 73t69.5 49.5t85 18.5q47 0 86 -19.5t66.5 -53.5t43 -77t15.5 -88q2 -29 -5 -55.5t-17 -48.5l-50 -115q-23 -53 -72.5 -86t-105.5 -33q-43 0 -76.5 17.5t-57 45t-36 62.5t-12.5 70z" />
<glyph unicode="&#x201a;" horiz-adv-x="514" d="M41 90q0 39 14 74q-12 37 -12 78q0 47 17.5 89t47 72.5t69.5 49t85 18.5q47 0 86 -20.5t66.5 -53t43 -75.5t15.5 -89q2 -29 -5 -55t-17 -49l-50 -115q-23 -53 -72.5 -85.5t-105.5 -32.5q-43 0 -76.5 17t-57 45t-36 62.5t-12.5 69.5z" />
<glyph unicode="&#x201c;" horiz-adv-x="851" d="M41 1315q0 57 22 106l50 113q23 53 73 85t105 32q59 0 101 -33t63 -78q23 53 73 82t103 29q43 0 75.5 -17.5t56 -45t36 -62.5t12.5 -70q0 -39 -12 -72q12 -35 12 -77q0 -47 -17.5 -89t-47 -73t-69.5 -48.5t-85 -17.5q-53 0 -95 23.5t-71 64.5q-31 -41 -76 -64.5 t-98 -23.5q-47 0 -86 19.5t-66.5 52.5t-43 76t-15.5 88z" />
<glyph unicode="&#x201d;" horiz-adv-x="864" d="M31 1268q0 39 14 73q-12 37 -12 78q0 47 17.5 89t47 73t69.5 49.5t87 18.5q53 0 94 -25t70 -65q29 41 75 65.5t99 24.5q47 0 86 -19.5t66.5 -53.5t43 -77t15.5 -88q0 -29 -6 -55.5t-17 -48.5l-49 -115q-23 -53 -72 -86t-106 -33q-59 0 -102 32t-64 79q-25 -51 -73 -81 t-101 -30q-43 0 -77 17.5t-57.5 45t-35.5 62.5t-12 70z" />
<glyph unicode="&#x201e;" horiz-adv-x="874" d="M41 90q0 39 14 74q-12 37 -12 78q0 47 17.5 89t47 72.5t69.5 49t87 18.5q53 0 94 -24.5t70 -65.5q29 41 75 65.5t99 24.5q47 0 86 -20.5t66.5 -53t43 -75.5t15.5 -89q2 -29 -5 -55t-17 -49l-50 -115q-23 -53 -71.5 -85.5t-106.5 -32.5q-59 0 -102 33.5t-64 76.5 q-25 -51 -74 -79.5t-102 -28.5q-43 0 -75.5 16t-56 44t-36 62.5t-12.5 69.5z" />
<glyph unicode="&#x2022;" horiz-adv-x="821" d="M72 637q0 74 26.5 137.5t72.5 110.5t108.5 73.5t134.5 26.5q70 0 131 -26.5t106 -73.5t72 -110.5t27 -137.5q0 -72 -27 -134.5t-72 -109.5t-106.5 -74.5t-130.5 -27.5q-72 0 -134.5 27.5t-108.5 74.5t-72.5 109.5t-26.5 134.5z" />
<glyph unicode="&#x2026;" horiz-adv-x="1064" d="M41 186v88q0 41 14.5 77t40 62.5t60 42t73.5 15.5q47 0 86 -22.5t64 -59.5q27 37 66.5 59.5t86.5 22.5t87 -22.5t65 -59.5q27 37 67 59.5t87 22.5q78 0 132 -57.5t54 -139.5v-88q0 -82 -54.5 -139t-131.5 -57q-47 0 -87 21.5t-67 58.5q-25 -37 -64.5 -58.5t-87.5 -21.5 q-47 0 -86.5 21.5t-66.5 58.5q-25 -37 -64 -58.5t-86 -21.5q-39 0 -73.5 15t-60 42t-40 62.5t-14.5 76.5z" />
<glyph unicode="&#x202f;" horiz-adv-x="411" />
<glyph unicode="&#x2039;" horiz-adv-x="821" d="M72 672q0 74 51 135l305 305q29 29 62.5 40t66.5 13q37 0 72 -14t61.5 -40t43 -60.5t16.5 -77.5q0 -80 -58 -137l-164 -164l164 -166q57 -61 58 -137q0 -45 -16.5 -81t-44 -60.5t-62.5 -38t-72 -13.5q-35 0 -66.5 12.5t-60.5 40.5l-305 306q-51 61 -51 137z" />
<glyph unicode="&#x203a;" horiz-adv-x="819" d="M72 369q0 82 55 137l164 166l-164 164q-55 55 -55 137q0 45 16 81t44 60.5t61.5 37.5t70.5 13q35 0 66.5 -12t60.5 -41l305 -305q51 -61 52 -137q0 -37 -12.5 -73t-39.5 -62l-301 -302q-29 -29 -64.5 -42t-70.5 -13q-74 0 -131 52.5t-57 138.5z" />
<glyph unicode="&#x2044;" horiz-adv-x="1216" d="M41 33q0 45 22 94l760 1532q27 53 74 83t102 27q43 0 79 -16t61.5 -44t40 -63.5t14.5 -74.5q0 -49 -20 -90l-762 -1536q-27 -53 -75 -82t-104 -29q-43 0 -78.5 17.5t-60 45t-39 63.5t-14.5 73z" />
<glyph unicode="&#x205f;" horiz-adv-x="514" />
<glyph unicode="&#x20ac;" horiz-adv-x="1353" d="M51 709q0 35 10.5 66.5t26.5 58.5q-37 53 -37 122q0 82 52.5 140.5t129.5 64.5v4q2 113 46.5 204t116 153.5t166.5 96.5t200 34q109 0 205 -35t168.5 -99.5t114.5 -154.5t42 -199q0 -43 -15 -80.5t-43 -65.5t-63.5 -44.5t-76.5 -16.5h-17q0 -74 -39 -124q23 -37 31 -73 t8 -75h17q41 0 76.5 -16.5t63.5 -44t43 -65.5t15 -81q0 -117 -45 -208t-119.5 -153.5t-170 -95t-195.5 -32.5q-113 0 -209 34.5t-166 99t-110.5 155t-43.5 200.5v23q-78 6 -130 65.5t-52 141.5z" />
<glyph unicode="&#x2122;" horiz-adv-x="1437" d="M96 1444q0 80 51.5 137t128.5 57h285q59 0 105 -34q29 23 63 30q20 6 45 6q37 0 64.5 -12t50 -31.5t42 -46t40.5 -57.5q39 63 81 105t113 42q39 0 72 -16t56.5 -42t36.5 -59.5t13 -68.5v-483q0 -80 -53 -135.5t-129 -55.5q-72 0 -124 51.5t-56 126.5h-25q-4 -74 -56 -126 t-124 -52q-68 0 -118 46t-60 114q-10 -68 -61.5 -114t-118.5 -46q-37 0 -70 15.5t-57.5 41t-38.5 60.5t-14 74v293q-59 14 -100.5 64t-41.5 116z" />
<glyph unicode="&#xe000;" horiz-adv-x="1165" d="M0 1165h1165v-1165h-1165v1165z" />
<glyph unicode="&#xfb01;" horiz-adv-x="1308" d="M61 1044q0 78 49.5 135.5t120.5 67.5q8 88 47 162t102.5 127t145.5 83t174 30q90 0 146 -68q57 68 145 68q41 0 77 -15.5t61.5 -43t41 -64.5t15.5 -80v-90q0 -47 -18.5 -87t-51.5 -69q33 -29 51.5 -68.5t18.5 -87.5v-851q0 -43 -15.5 -80t-41 -65t-61.5 -43t-77 -15 t-75.5 15t-61.5 43t-42 65t-15 80v649h-179v-649q0 -43 -15 -80t-40.5 -65t-61.5 -43t-77 -15t-76 15t-61.5 43t-42 65t-15.5 80v651q-72 10 -120 66t-48 134z" />
<glyph unicode="&#xfb02;" horiz-adv-x="1495" d="M61 1044q0 78 49.5 135.5t120.5 67.5q10 92 52.5 166t106 126t144 81t166.5 29q47 0 86 -20.5t68 -55.5q27 35 65.5 55.5t86.5 20.5q39 0 74.5 -15.5t62 -43t42 -64.5t15.5 -80v-1020q0 -10 10.5 -16.5t23.5 -9.5t26.5 -4t19.5 -1q41 0 77 -15t61.5 -43t41 -64.5 t15.5 -79.5t-15.5 -80t-41 -65t-61.5 -43t-77 -15q-102 0 -188 32.5t-148.5 91t-97.5 138.5t-35 174v416h-193v-649q0 -43 -15 -80t-40.5 -65t-61.5 -43t-77 -15t-76 15t-61.5 43t-42 65t-15.5 80v651q-72 10 -120 66t-48 134z" />
<glyph unicode="&#xfb03;" horiz-adv-x="2394" d="M1897 186v787q0 94 65 149q-66 59 -65 152v86q0 82 54 139t132 57q39 0 74 -15t60.5 -41.5t40 -62.5t14.5 -77v-86q0 -47 -18.5 -85t-49.5 -67q31 -27 49.5 -65.5t18.5 -83.5v-787q0 -41 -14.5 -76.5t-40 -62.5t-60.5 -42t-74 -15q-78 0 -132 57t-54 139zM938 965 q0 76 47 129t117 63q10 90 50 164t100.5 126t138.5 80.5t166 28.5q78 0 132 -57t54 -139q0 -47 -18.5 -85t-48 -63.5t-69.5 -39t-83 -13.5h-12q80 0 135 -56t55 -138t-54 -139.5t-132 -57.5h-39v-582q0 -82 -54.5 -139t-132.5 -57q-39 0 -73.5 15t-60 42t-40 62.5 t-14.5 76.5v584q-70 8 -117 63.5t-47 131.5zM51 965q0 76 47 129t117 63q10 90 50 164t100.5 126t138.5 80.5t166 28.5q78 0 132 -57t54 -139q0 -47 -18.5 -85t-48 -63.5t-69.5 -39t-83 -13.5h-12q80 0 135 -56t55 -138t-54 -139.5t-132 -57.5h-39v-582q0 -82 -54.5 -139 t-132.5 -57q-39 0 -73.5 15t-60 42t-40 62.5t-14.5 76.5v584q-70 8 -117 63.5t-47 131.5z" />
<glyph unicode="&#xfb04;" horiz-adv-x="2555" d="M1897 412v948q0 82 54 139t132 57q39 0 74 -15t60.5 -41.5t40 -62.5t14.5 -77v-948q0 -10 9 -16.5t22.5 -9.5t25.5 -4t18 -1q39 0 74 -15.5t60.5 -41t40 -61.5t14.5 -77t-14.5 -76.5t-40 -62.5t-60.5 -42t-74 -15q-94 0 -176 31.5t-143 87t-96 133.5t-35 170zM938 965 q0 76 47 129t117 63q10 90 50 164t100.5 126t138.5 80.5t166 28.5q78 0 132 -57t54 -139q0 -47 -18.5 -85t-48 -63.5t-69.5 -39t-83 -13.5h-12q80 0 135 -56t55 -138t-54 -139.5t-132 -57.5h-39v-582q0 -82 -54.5 -139t-132.5 -57q-39 0 -73.5 15t-60 42t-40 62.5 t-14.5 76.5v584q-70 8 -117 63.5t-47 131.5zM51 965q0 76 47 129t117 63q10 90 50 164t100.5 126t138.5 80.5t166 28.5q78 0 132 -57t54 -139q0 -47 -18.5 -85t-48 -63.5t-69.5 -39t-83 -13.5h-12q80 0 135 -56t55 -138t-54 -139.5t-132 -57.5h-39v-582q0 -82 -54.5 -139 t-132.5 -57q-39 0 -73.5 15t-60 42t-40 62.5t-14.5 76.5v584q-70 8 -117 63.5t-47 131.5z" />
</font>
</defs>
</svg>
